<?xml version="1.0" encoding="UTF-8" standalone="no"?>
<svg
   xmlns:dc="http://purl.org/dc/elements/1.1/"
   xmlns:cc="http://creativecommons.org/ns#"
   xmlns:rdf="http://www.w3.org/1999/02/22-rdf-syntax-ns#"
   xmlns:svg="http://www.w3.org/2000/svg"
   xmlns="http://www.w3.org/2000/svg"
   xmlns:sodipodi="http://sodipodi.sourceforge.net/DTD/sodipodi-0.dtd"
   xmlns:inkscape="http://www.inkscape.org/namespaces/inkscape"
   width="1024"
   height="1024"
   viewBox="0 0 1024 1024"
   version="1.1"
   xml:space="preserve"
   style="clip-rule:evenodd;fill-rule:evenodd;stroke-linejoin:round;stroke-miterlimit:2"
   id="svg28"
   sodipodi:docname="HVO Huislogo 2 klein.svg"
   inkscape:version="1.0.1 (3bc2e813f5, 2020-09-07)"><metadata
   id="metadata34"><rdf:RDF><cc:Work
       rdf:about=""><dc:format>image/svg+xml</dc:format><dc:type
         rdf:resource="http://purl.org/dc/dcmitype/StillImage" /><dc:title></dc:title></cc:Work></rdf:RDF></metadata><defs
   id="defs32" /><sodipodi:namedview
   pagecolor="#ffffff"
   bordercolor="#666666"
   borderopacity="1"
   objecttolerance="10"
   gridtolerance="10"
   guidetolerance="10"
   inkscape:pageopacity="0"
   inkscape:pageshadow="2"
   inkscape:window-width="1920"
   inkscape:window-height="1019"
   id="namedview30"
   showgrid="false"
   inkscape:zoom="0.55242717"
   inkscape:cx="-68.488592"
   inkscape:cy="327.9463"
   inkscape:window-x="0"
   inkscape:window-y="32"
   inkscape:window-maximized="1"
   inkscape:current-layer="svg28" />
    <g
   transform="matrix(7.1436298,0,0,7.1436298,-9062.4449,-12980.986)"
   id="g26">
        <g
   transform="matrix(0.832482,0,0,0.832482,-39.356,663.74)"
   id="g4">
            <path
   d="m 1636.83,1543.83 c -29.95,-10.08 -54.99,-38.78 -54.99,-72.11 0,-41.69 33.85,-75.54 75.54,-75.54 41.7,0 75.54,33.85 75.54,75.54 0,33.8 -22.25,62.45 -52.88,72.08 -2.64,0.83 -4.11,3.64 -3.28,6.28 0.83,2.63 3.64,4.1 6.28,3.27 34.7,-10.91 59.89,-43.35 59.89,-81.63 0,-47.22 -38.33,-85.55 -85.55,-85.55 -47.21,0 -85.55,38.33 -85.55,85.55 0,37.63 28,70.22 61.81,81.6 2.62,0.88 5.46,-0.53 6.34,-3.15 0.88,-2.62 -0.53,-5.46 -3.15,-6.34 z"
   id="path2" />
        </g>
        <g
   transform="matrix(1.49621,0,0,0.436912,-530.836,1752.59)"
   id="g8">
            <path
   d="m 1235.54,405.618 v 52.854 c 0,5.264 1.25,9.537 2.78,9.537 1.54,0 2.79,-4.273 2.79,-9.537 v -52.854 c 0,-5.263 -1.25,-9.536 -2.79,-9.536 -1.53,0 -2.78,4.273 -2.78,9.536 z"
   id="path6" />
        </g>
        <g
   transform="matrix(1.49621,0,0,0.512629,-530.836,1712.42)"
   id="g12">
            <path
   d="m 1261.3,347.383 c -1.72,1.762 -3.74,3.363 -5.57,3.607 -4.41,0.586 -17.76,-4.353 -17.76,-4.353 -1.53,-0.572 -2.61,-4.648 -2.41,-9.097 0.2,-4.45 1.59,-7.598 3.12,-7.027 0,0 12.62,4.792 16.8,4.237 3.27,-0.434 7.3,-6.79 7.3,-6.79 0.87,-1.328 1.9,-1.24 2.74,0.231 0.84,1.471 1.35,4.111 1.35,6.959 v 133.955 c 0,4.486 -1.25,8.128 -2.79,8.128 -1.53,0 -2.78,-3.642 -2.78,-8.128 z"
   id="path10" />
        </g>
        <g
   transform="matrix(1.04588,0,0,1.04588,35.1718,1380.34)"
   id="g16">
            <path
   d="m 1226.58,511.516 c 0.07,0.015 0.23,0.044 0.32,0.057 0.36,0.05 0.75,0.042 1.12,0.012 l 3.64,-0.884 c 2.03,-0.841 4.36,0.126 5.21,2.158 0.84,2.031 -0.13,4.363 -2.16,5.204 0,0 -2.93,1.21 -6.04,1.463 -2.81,0.228 -5.65,-0.397 -7.57,-2.192 -1.4,-1.303 -2.49,-3.239 -2.58,-6.223 -0.08,-2.824 0.87,-7.086 3.91,-13.291 3.13,-6.37 3.83,-14.534 3.83,-14.534 0.19,-2.191 2.12,-3.812 4.32,-3.619 2.19,0.193 3.81,2.128 3.61,4.318 0,0 -0.87,9.737 -4.6,17.342 -1.9,3.874 -2.86,6.689 -3.07,8.752 -0.04,0.406 -0.05,0.767 -0.01,1.086 0.01,0.112 0.04,0.262 0.07,0.351 z"
   id="path14" />
        </g>
        <g
   transform="matrix(1.04588,0,0,0.524802,34.862,1643.87)"
   id="g20">
            <path
   d="m 1253.49,496.162 v 45.075 c 0,4.382 1.78,7.94 3.98,7.94 2.2,0 3.99,-3.558 3.99,-7.94 v -45.075 c 0,-4.382 -1.79,-7.939 -3.99,-7.939 -2.2,0 -3.98,3.557 -3.98,7.939 z"
   id="path18" />
        </g>
        <g
   transform="matrix(0.581578,0,0,0.744419,614.888,1674.36)"
   id="g24">
            <path
   d="m 1251.01,235.66 c -2.01,5.359 -5.61,11.88 -12,18.813 -1.24,1.35 -2,2.972 -2,4.749 0,1.842 1.56,4.288 4.76,6.776 2.8,2.179 2.81,5.726 0.02,7.915 -2.79,2.189 -7.33,2.197 -10.13,0.017 -6.74,-5.243 -8.98,-10.825 -8.98,-14.708 0,-4.217 1.75,-8.08 4.7,-11.286 12.62,-13.705 11.81,-25.191 11.81,-25.191 -0.22,-2.31 1.4,-4.488 4.08,-5.48 2.68,-0.991 5.86,-0.591 8.01,1.007 0,0 25.19,19.055 22.58,41.457 -0.83,7.105 -3.09,10.848 -10.49,15.333 -3.12,1.894 -7.62,1.45 -10.05,-0.99 -2.42,-2.441 -1.85,-5.96 1.27,-7.854 3.6,-2.182 4.59,-4.046 5,-7.503 1.04,-8.932 -3.69,-17.143 -8.58,-23.055 z"
   id="path22" />
        </g>
    </g>
</svg>
