<?xml version="1.0" encoding="UTF-8" standalone="no"?>
<svg
   xmlns:dc="http://purl.org/dc/elements/1.1/"
   xmlns:cc="http://creativecommons.org/ns#"
   xmlns:rdf="http://www.w3.org/1999/02/22-rdf-syntax-ns#"
   xmlns:svg="http://www.w3.org/2000/svg"
   xmlns="http://www.w3.org/2000/svg"
   xmlns:sodipodi="http://sodipodi.sourceforge.net/DTD/sodipodi-0.dtd"
   xmlns:inkscape="http://www.inkscape.org/namespaces/inkscape"
   width="260"
   height="260"
   viewBox="0 0 260 259.99999"
   version="1.1"
   xml:space="preserve"
   style="clip-rule:evenodd;fill-rule:evenodd;stroke-linejoin:round;stroke-miterlimit:2"
   id="svg140"
   sodipodi:docname="HVO Huislogo.svg"
   inkscape:version="1.0.1 (3bc2e813f5, 2020-09-07)"><metadata
   id="metadata146"><rdf:RDF><cc:Work
       rdf:about=""><dc:format>image/svg+xml</dc:format><dc:type
         rdf:resource="http://purl.org/dc/dcmitype/StillImage" /><dc:title></dc:title></cc:Work></rdf:RDF></metadata><defs
   id="defs144">
        
        
        
    
            
            
        
            
        
            
        
                
                
                
                
            
                
            
                    
                    
                    
                    
                    
                    
                    
                    
                    
                    
                    
                    
                    
                    
                    
                    
                    
                    
                    
                    
                    
                    
                
                    
                
                    
                
                    
                    
                    
                    
                    
                    
                
                        
                    
                        
                    
                        
                    
                        
                    
                        
                    
                        
                    
                        
                    
                        
                    
                        
                    
                        
                    
                        
                    
                        
                    
                        
                    
                        
                    
                        
                    
                        
                    
                        
                    
                        
                    
                        
                    
                        
                    
                        
                    
                        
                    
                        
                    
                        
                    
                        
                    
                        
                    </defs><sodipodi:namedview
   pagecolor="#ffffff"
   bordercolor="#666666"
   borderopacity="1"
   objecttolerance="10"
   gridtolerance="10"
   guidetolerance="10"
   inkscape:pageopacity="0"
   inkscape:pageshadow="2"
   inkscape:window-width="1920"
   inkscape:window-height="1019"
   id="namedview142"
   showgrid="false"
   fit-margin-top="1"
   fit-margin-left="1"
   fit-margin-bottom="1"
   fit-margin-right="1"
   units="px"
   inkscape:zoom="2.4455274"
   inkscape:cx="159.18733"
   inkscape:cy="107.29286"
   inkscape:window-x="0"
   inkscape:window-y="32"
   inkscape:window-maximized="1"
   inkscape:current-layer="svg140"
   inkscape:document-rotation="0" />
    <path
   d="m 31.556497,123.28225 10.719695,1.13866 -0.355963,3.35114 -25.894327,-2.75052 0.355962,-3.35115 11.823486,1.25591 0.849241,-7.99503 -11.823486,-1.2559 0.355963,-3.35115 25.894328,2.75053 -0.355963,3.35114 -10.719695,-1.13865 z"
   style="fill-rule:nonzero;stroke:#000000;stroke-width:1.67px"
   id="path2" /><path
   d="m 23.585272,88.55499 3.204768,1.009492 -3.202733,10.167508 7.592248,2.39153 3.202733,-10.167504 3.214306,1.012497 -3.202733,10.167507 7.592248,2.39153 3.202733,-10.167503 3.233382,1.018505 -4.215229,13.381818 -24.836952,-7.82357 z"
   style="fill-rule:nonzero;stroke:#000000;stroke-width:1.67px"
   id="path6" /><path
   d="m 32.519775,77.512018 20.184929,10.319765 -1.538633,3.009486 -20.184928,-10.319765 -2.763166,5.404611 -3.000583,-1.534081 7.069517,-13.827611 3.000583,1.534081 z"
   style="fill-rule:nonzero;stroke:#000000;stroke-width:1.67px"
   id="path10" /><path
   d="m 66.533584,68.67564 -25.311831,-11.287395 2.486521,-2.575581 18.147922,8.082445 -8.708867,-17.859578 2.500412,-2.589969 12.14994,24.920705 z"
   style="fill-rule:nonzero;stroke:#000000;stroke-width:1.67px"
   id="path14" /><path
   d="m 70.537057,31.836744 1.943552,2.75309 -8.708587,6.147854 4.590705,6.502847 8.708587,-6.147854 1.943552,2.75309 -8.708587,6.147854 4.584938,6.494678 8.708587,-6.147854 1.955087,2.769429 L 74.093214,61.201284 59.075379,39.92815 Z"
   style="fill-rule:nonzero;stroke:#000000;stroke-width:1.67px"
   id="path18" /><path
   d="m 81.990247,29.527439 4.385213,10.02265 2.821733,-1.234594 c 1.365059,-0.597254 2.330434,-1.60906 2.872649,-3.01423 0.551377,-1.409179 0.52901,-2.807463 -0.08027,-4.200007 -0.605271,-1.383382 -1.613069,-2.339596 -3.022247,-2.890972 -1.396009,-0.546224 -2.790285,-0.514695 -4.155344,0.08256 z m 8.561792,11.884634 -2.821733,1.234593 3.339014,7.631506 -3.087416,1.350838 -10.437927,-23.856472 6.770327,-2.962223 c 2.030992,-0.572077 3.997297,-0.493681 5.902923,0.24435 2.273238,0.904647 3.894876,2.465509 4.868922,4.691747 0.982064,2.24456 1.035945,4.513194 0.153629,6.787577 -0.618366,1.580387 -1.183496,2.558972 -1.700542,2.948924 l 8.862824,5.836843 -3.747041,1.639444 z"
   style="fill-rule:nonzero;stroke:#000000;stroke-width:1.67px"
   id="path22" /><path
   d="m 103.47496,21.711551 2.19947,10.71662 3.01711,-0.619228 c 1.45957,-0.299561 2.61467,-1.087887 3.44971,-2.341365 0.83303,-1.263274 1.09084,-2.643285 0.78525,-4.132248 -0.30157,-1.469373 -1.0801,-2.626477 -2.34137,-3.449712 -1.26327,-0.833031 -2.63348,-1.092857 -4.09306,-0.793295 z m 5.89612,13.408377 -3.01711,0.619228 1.67674,8.169709 -3.30119,0.677532 -5.23529,-25.508299 7.2391,-1.485745 c 2.11342,-0.147918 4.01038,0.340677 5.72028,1.459754 2.03471,1.358669 3.30512,3.221287 3.79367,5.60167 0.49458,2.40977 0.0625,4.632007 -1.27252,6.682281 -0.93625,1.406959 -1.69297,2.246233 -2.27995,2.51983 l 7.45332,7.566012 -3.99669,0.820277 z"
   style="fill-rule:nonzero;stroke:#000000;stroke-width:1.67px"
   id="path26" /><path
   d="m 136.71633,15.167854 0.008,3.369991 -10.65997,0.02561 0.0191,7.959977 10.65997,-0.02561 0.008,3.36999 -10.65997,0.02561 0.0191,7.959977 10.65996,-0.02561 0.008,3.37999 -14.02996,0.0337 -0.0625,-26.039925 z"
   style="fill-rule:nonzero;stroke:#000000;stroke-width:1.67px"
   id="path30" /><path
   d="m 169.838,22.070078 c 3.44425,1.295967 5.92176,3.627844 7.43957,6.976911 1.51781,3.349068 1.63457,6.758609 0.34212,10.193501 -1.29597,3.444252 -3.62784,5.921761 -6.98043,7.44893 -3.34907,1.517809 -6.74573,1.628731 -10.18998,0.332764 -3.44425,-1.295968 -5.92528,-3.618485 -7.45245,-6.971074 -1.51429,-3.358427 -1.62521,-6.755087 -0.32925,-10.199338 1.29245,-3.434893 3.61849,-5.925283 6.96756,-7.443092 3.35842,-1.514288 6.75861,-1.634569 10.20286,-0.338602 z m -1.20089,3.191548 c -2.57383,-0.968453 -5.102,-0.894019 -7.60092,0.238501 -2.48956,1.136041 -4.22148,2.984536 -5.18642,5.549006 -0.96845,2.573829 -0.88466,5.105524 0.24434,7.613803 1.13252,2.498919 2.98102,4.230845 5.54549,5.195777 2.56447,0.964932 5.09616,0.881139 7.59508,-0.251381 2.50244,-1.141879 4.23437,-2.990374 5.20282,-5.564203 0.96493,-2.56447 0.88114,-5.096165 -0.25138,-7.595084 -1.13252,-2.49892 -2.98454,-4.221487 -5.54901,-5.186419 z"
   style="fill-rule:nonzero;stroke:#000000;stroke-width:1.67px"
   id="path34" /><path
   d="m 199.62774,38.772657 c 2.90438,2.259865 4.5781,5.222016 5.04136,8.876806 0.45536,3.64865 -0.44689,6.925164 -2.70676,9.829541 -2.25986,2.904377 -5.21412,4.584247 -8.86891,5.0475 -3.65655,0.449221 -6.93306,-0.453031 -9.83744,-2.712897 -2.90437,-2.259866 -4.58424,-5.214124 -5.0396,-8.862774 -0.44922,-3.656542 0.44514,-6.939196 2.705,-9.843573 2.25987,-2.904378 5.22202,-4.578106 8.87067,-5.033467 3.64865,-0.455362 6.9313,0.438998 9.83568,2.698864 z m -2.08792,2.683392 c -2.1625,-1.682618 -4.60498,-2.354042 -7.32743,-2.014272 -2.72245,0.33977 -4.92499,1.590904 -6.60761,3.753402 -1.68876,2.170391 -2.35229,4.619008 -2.01866,7.349354 0.33977,2.722454 1.59091,4.92499 3.74551,6.601467 2.17039,1.688758 4.61287,2.360182 7.33532,2.020412 2.72071,-0.353803 4.92324,-1.604937 6.612,-3.775327 1.68262,-2.162499 2.35404,-4.604975 2.02216,-7.321288 -0.33977,-2.722454 -1.5909,-4.92499 -3.76129,-6.613748 z"
   style="fill-rule:nonzero;stroke:#000000;stroke-width:1.67px"
   id="path38" /><path
   d="m 208.51447,65.678018 c -0.67216,-1.821594 -0.92852,-3.541676 -0.74872,-5.150954 0.16573,-1.610786 0.91347,-2.945771 2.23694,-4.01274 1.29233,-1.041864 2.7744,-1.465989 4.44921,-1.300499 1.67331,0.179552 3.04421,0.924033 4.11117,2.247505 1.04814,1.300116 1.47855,2.789966 1.30678,4.456999 -0.0855,0.929562 -0.53743,2.026048 -1.36048,3.267612 l -2.85476,-1.629095 c 0.55256,-0.907893 0.8452,-1.580546 0.89047,-2.002389 0.0659,-0.746763 -0.13336,-1.408195 -0.59781,-1.984295 -0.477,-0.591669 -1.08737,-0.934519 -1.83262,-1.014488 -0.73747,-0.08624 -1.40518,0.10524 -1.99685,0.582238 -0.59167,0.476997 -0.92824,1.095155 -1.00821,1.84041 -0.089,0.829623 0.0193,1.808432 0.29684,2.933408 0.76654,2.002401 1.0349,4.008239 0.82064,6.00496 -0.21806,2.230997 -1.20291,4.052579 -2.95457,5.464743 -1.74386,1.405889 -3.74071,1.988126 -5.97648,1.74822 -2.23576,-0.239905 -4.05734,-1.224761 -5.45695,-2.960845 -1.41217,-1.751654 -1.99441,-3.748501 -1.74044,-5.982757 0.19162,-1.7858 1.05192,-3.506961 2.57461,-5.171267 l 2.97877,1.798858 c -1.36294,1.368535 -2.1079,2.611367 -2.22861,3.73628 -0.13405,1.315497 0.203,2.482417 1.03147,3.510053 0.82219,1.019852 1.89104,1.596801 3.19875,1.737123 1.31399,0.148107 2.48242,-0.202998 3.51005,-1.031468 1.02764,-0.82847 1.61086,-1.88953 1.74491,-3.205026 0.13429,-1.251466 0.003,-2.545662 -0.39411,-3.882586 z"
   style="fill-rule:nonzero;stroke:#000000;stroke-width:1.67px"
   id="path42" /><path
   d="m 227.71652,78.047923 -19.92203,10.818576 -1.61778,-2.979078 19.92204,-10.818576 -2.89673,-5.334218 2.9615,-1.608231 7.41123,13.647514 -2.9615,1.608231 z"
   style="fill-rule:nonzero;stroke:#000000;stroke-width:1.67px"
   id="path46" /><path
   d="m 240.65738,102.18608 -3.21662,1.00509 -3.1793,-10.17486 -7.59773,2.374031 3.17929,10.174859 -3.21663,1.00508 -3.17929,-10.174853 -7.59774,2.374031 3.1793,10.174852 -3.23572,1.01106 -4.18438,-13.39149 24.86445,-7.769285 z"
   style="fill-rule:nonzero;stroke:#000000;stroke-width:1.67px"
   id="path50" /><path
   d="m 242.45419,110.3742 0.29082,3.05619 -17.47905,12.45178 18.49645,-1.76008 0.32113,3.37476 -25.9229,2.46677 -0.27945,-2.93674 17.70471,-12.61389 -18.73537,1.78282 -0.31924,-3.35485 z"
   style="fill-rule:nonzero;stroke:#000000;stroke-width:1.67px"
   id="path54" /><path
   d="m 55.423421,198.13083 3.18554,-5.67075 -6.082904,2.29321 z m 9.36426,-9.7721 -13.606047,24.14868 -2.330913,-2.71721 4.8168,-8.54572 -4.492542,-5.23709 -9.172612,3.46803 -2.343934,-2.7324 25.937748,-9.77326 z"
   style="fill-rule:nonzero;stroke:#000000;stroke-width:1.67px"
   id="path58" /><path
   d="m 71.426098,195.74263 2.459227,1.83769 -2.510634,21.31845 11.121932,-14.88353 2.707553,2.02326 -15.587466,20.85936 -2.363101,-1.76586 2.544175,-21.5805 -11.25961,15.06777 -2.699541,-2.01727 z"
   style="fill-rule:nonzero;stroke:#000000;stroke-width:1.67px"
   id="path62" /><path
   d="m 86.986967,207.09171 2.811663,1.25736 2.219341,21.34569 7.584969,-16.96127 3.09465,1.38391 -10.630381,23.77134 -2.69299,-1.20429 -2.258296,-21.62601 -7.682943,17.18036 -3.076398,-1.37575 z"
   style="fill-rule:nonzero;stroke:#000000;stroke-width:1.67px"
   id="path66" /><path
   d="m 116.81807,216.7253 c 3.62719,0.55892 6.53258,2.32196 8.71465,5.299 2.17371,2.96563 2.99023,6.26851 2.42979,9.90558 -0.56044,3.63708 -2.33336,6.54094 -5.30051,8.72454 -2.97552,2.17219 -6.27687,2.97882 -9.90406,2.41991 -3.63708,-0.56044 -6.54247,-2.32348 -8.72606,-5.29064 -2.17219,-2.97551 -2.97883,-6.27687 -2.41839,-9.91394 0.56044,-3.63708 2.32348,-6.54247 5.28911,-8.71618 2.97704,-2.18207 6.27839,-2.9887 9.91547,-2.42827 z m -0.5178,3.36034 c -2.71792,-0.4188 -5.17835,0.18352 -7.39117,1.80544 -2.20293,1.62345 -3.51799,3.78843 -3.93527,6.49647 -0.4188,2.71792 0.18352,5.17835 1.80544,7.39117 1.6204,2.2227 3.78538,3.53775 6.49342,3.95503 2.70804,0.41729 5.16846,-0.18503 7.38281,-1.81684 2.21282,-1.62192 3.51798,-3.78843 3.93679,-6.50635 0.41728,-2.70804 -0.17515,-5.16694 -1.79708,-7.37976 -1.62192,-2.21282 -3.7869,-3.52787 -6.49494,-3.94516 z"
   style="fill-rule:nonzero;stroke:#000000;stroke-width:1.67px"
   id="path70" /><path
   d="m 146.98552,243.12458 c -0.32604,-4.1819 0.21656,-7.11543 1.64955,-8.79527 1.43298,-1.67983 2.65683,-3.10697 3.66931,-4.29114 1.00051,-1.19171 1.8707,-2.4153 2.58885,-3.67608 0.71593,-1.27053 0.92967,-2.53959 0.63678,-3.82669 -0.29068,-1.27734 -0.98773,-2.26735 -2.09868,-2.95806 -1.1012,-0.69293 -2.3051,-0.89073 -3.58245,-0.60005 -1.25784,0.28623 -2.2381,0.98106 -2.94078,2.08449 -0.60477,0.94781 -0.77856,2.39239 -0.54311,4.32841 l -3.5567,-0.44183 c -0.15798,-2.27157 0.23909,-4.17718 1.19341,-5.70707 1.19313,-1.92267 2.8975,-3.13097 5.08166,-3.628 2.21342,-0.50369 4.27282,-0.15188 6.17599,1.04568 1.90538,1.20732 3.10393,2.91391 3.6054,5.11757 0.49703,2.18417 0.17891,4.25641 -0.95436,6.21674 -0.72259,1.24128 -1.60031,2.47683 -2.65267,3.71111 -1.05236,1.23427 -2.21461,2.61662 -3.49118,4.12754 -1.1268,1.31275 -1.68012,2.35142 -1.67947,3.12045 l 12.06164,-2.74477 0.74999,3.29574 z"
   style="fill-rule:nonzero;stroke:#000000;stroke-width:1.67px"
   id="path74" /><path
   d="m 175.66579,215.88254 c -0.67888,-1.44884 -1.76302,-2.44273 -3.27478,-2.98227 -1.5027,-0.54378 -2.98087,-0.46957 -4.43876,0.21355 -1.43978,0.67464 -2.44273,1.76303 -2.98651,3.26573 -0.54377,1.5027 -0.48287,2.97606 0.19601,4.42489 l 3.3732,7.19889 c 0.68313,1.45789 1.78057,2.4566 3.28327,3.00038 1.49845,0.53472 2.98087,0.46957 4.42065,-0.20507 1.45789,-0.68312 2.4566,-1.78056 3.00462,-3.27421 0.55283,-1.50694 0.47863,-2.98511 -0.2045,-4.443 z m 6.49725,5.73505 c 1.08197,2.30907 1.19198,4.66498 0.33003,7.06772 -0.87101,2.40698 -2.47223,4.15117 -4.79036,5.23738 -2.30908,1.08197 -4.66499,1.19198 -7.06291,0.31673 -2.40698,-0.87101 -4.14692,-2.46317 -5.22889,-4.77225 l -3.3732,-7.19889 c -1.08197,-2.30908 -1.19198,-4.66498 -0.32098,-7.07196 0.86195,-2.40274 2.45412,-4.14269 4.76319,-5.22466 2.31814,-1.08621 4.6831,-1.20046 7.09008,-0.32945 2.39792,0.87524 4.13787,2.46741 5.21984,4.77649 z"
   style="fill-rule:nonzero;stroke:#000000;stroke-width:1.67px"
   id="path78" /><path
   d="m 193.24123,203.58216 c -0.97641,-1.25488 -2.25355,-1.98434 -3.8472,-2.17611 -1.58576,-0.19791 -3.01704,0.19354 -4.27981,1.17609 -1.26278,0.98255 -1.99399,2.27372 -2.1919,3.85948 -0.19791,1.58576 0.1874,3.00915 1.16381,4.26403 l 4.88819,6.2823 c 0.98869,1.27066 2.27372,1.99398 3.85948,2.19189 1.58576,0.19791 3.01704,-0.19354 4.27981,-1.17609 1.26277,-0.98255 1.99399,-2.27372 2.1919,-3.85948 0.2058,-1.5919 -0.1874,-3.00915 -1.17609,-4.27981 z m 7.61893,4.15753 c 1.56594,2.01254 2.18647,4.2919 1.87736,6.82578 -0.32315,2.53213 -1.49274,4.5952 -3.50528,6.16113 -2.01255,1.56594 -4.2919,2.18647 -6.82578,1.87736 -2.54002,-0.317 -4.58906,-1.48485 -6.155,-3.49739 l -4.88819,-6.2823 c -1.56594,-2.01254 -2.19435,-4.28575 -1.87121,-6.81788 0.317,-2.54002 1.48485,-4.58906 3.49739,-6.155 2.01255,-1.56594 4.29365,-2.20049 6.83367,-1.88349 2.52599,0.31525 4.58292,1.47695 6.14886,3.4895 z"
   style="fill-rule:nonzero;stroke:#000000;stroke-width:1.67px"
   id="path82" /><path
   d="m 204.67685,196.6879 -1.36191,1.50618 -2.53182,-2.17842 c 0.94361,-1.12734 1.50698,-1.93543 1.67056,-2.40152 0.1701,-0.47368 0.21468,-1.10812 0.12617,-1.90984 -0.0744,-0.80279 -0.41377,-1.45097 -0.98987,-1.94665 -0.56094,-0.48265 -1.21566,-0.70298 -1.94141,-0.64144 -0.73333,0.055 -1.34784,0.37058 -1.83048,0.93152 -0.48265,0.56094 -0.69646,1.20807 -0.64902,1.93488 0.0383,0.4155 0.32439,1.11021 0.84973,2.06353 l -2.98793,1.57145 c -0.80776,-1.31504 -1.23844,-2.42436 -1.28007,-3.35725 -0.11939,-1.68577 0.37152,-3.17625 1.46725,-4.44973 1.1153,-1.29623 2.52236,-2.01162 4.21572,-2.12448 1.68578,-0.11939 3.16109,0.35847 4.41942,1.44116 1.28865,1.10878 1.87201,2.92993 1.75115,5.47755 0.67919,-0.68205 1.76137,-1.09652 3.2335,-1.22824 2.27685,-0.0857 4.26374,0.59484 5.96172,2.05582 1.70556,1.4675 2.64678,3.33271 2.82911,5.57395 0.17581,2.24882 -0.47655,4.23359 -1.9571,5.95431 -1.4675,1.70557 -3.32618,2.6392 -5.58364,2.79439 -1.7986,0.12785 -3.66861,-0.41258 -5.61761,-1.62781 l 1.27319,-3.35027 c 1.6086,1.12023 2.97427,1.64886 4.08837,1.56527 1.30395,-0.10492 2.38313,-0.65389 3.2245,-1.63174 0.85441,-0.99302 1.2362,-2.14203 1.14538,-3.44704 -0.0908,-1.30501 -0.63978,-2.3842 -1.6328,-3.23861 -1.00818,-0.86745 -2.18751,-1.27534 -3.55969,-1.22912 -1.37217,0.0462 -2.82137,0.67259 -4.33242,1.89215 z"
   style="fill-rule:nonzero;stroke:#000000;stroke-width:1.67px"
   id="path86" /><path
   d="m 44.006311,163.38895 -7.345922,0.20456 -2.073684,7.0522 -2.464052,-6.92014 -7.352989,0.20248 5.824753,-4.48284 -2.471119,-6.92222 6.073039,4.15038 5.817686,-4.48491 -2.073684,7.05219 z"
   style="stroke:#000000;stroke-width:4.16887px;stroke-linecap:round;stroke-miterlimit:1.5"
   id="path92" /><path
   d="m 215.80785,165.38895 7.34592,0.20456 2.07368,7.0522 2.46406,-6.92014 7.35299,0.20248 -5.82476,-4.48284 2.47112,-6.92222 -6.07304,4.15038 -5.81768,-4.48491 2.07368,7.05219 z"
   style="stroke:#000000;stroke-width:4.16887px;stroke-linecap:round;stroke-miterlimit:1.5"
   id="path96" /><path
   d="m 111.78108,207.58652 c -2.46,-0.57 -4.88,-1.26 -7.25,-2.06"
   style="fill:none;stroke:#000000;stroke-width:6.25px;stroke-linecap:round;stroke-miterlimit:1.5"
   id="path100"
   sodipodi:nodetypes="cc" /><path
   d="m 104.53108,205.52652 c -31.88,-10.73 -54.87,-40.88 -54.87,-76.36 0,-44.45 36.09,-80.55 80.54,-80.55 44.46,0 80.55,36.1 80.55,80.55 0,38.12 -26.53,70.08 -62.12,78.42"
   style="fill:none;stroke:#000000;stroke-width:6.25px;stroke-linecap:round;stroke-miterlimit:1.5"
   id="path102" /><path
   d="m 111.78052,179.27698 v 28.31744"
   style="fill:none;stroke:#000000;stroke-width:4.40749px;stroke-linecap:round;stroke-miterlimit:1.5"
   id="path104" /><path
   d="m 148.63201,207.58481 v -70.9682 c 0,0 -6.70938,3.53684 -12.13124,3.78387 -6.13714,0.27987 -24.72025,-2.10515 -24.72025,-2.10515"
   style="fill:none;stroke:#000000;stroke-width:4.89858px;stroke-linecap:round;stroke-miterlimit:1.5"
   id="path108" /><path
   d="m 111.68308,138.47652 c 0,0 -0.79,8.951 -4.22,15.939 -10.93,22.3 7.17,14.808 7.17,14.808"
   style="fill:none;stroke:#000000;stroke-width:6.25px;stroke-linecap:round;stroke-miterlimit:1.5"
   id="path112" /><path
   d="m 138.62708,155.7697 v 22.61764"
   style="fill:none;stroke:#000000;stroke-width:5.59607px;stroke-linecap:round;stroke-miterlimit:1.5"
   id="path116" /><ellipse
   cx="129.97583"
   cy="130.00262"
   rx="121.89123"
   ry="123.10021"
   style="fill:none;stroke:#000000;stroke-width:6.24578px;stroke-linecap:round;stroke-miterlimit:1.5"
   id="ellipse124" /><ellipse
   cx="129.97583"
   cy="130.00363"
   rx="121.89123"
   ry="123.10021"
   style="fill:none;stroke:#000000;stroke-width:6.24578px;stroke-linecap:round;stroke-miterlimit:1.5"
   id="ellipse130" /><path
   d="m 122.90326,129.48327 c -2.99063,-2.97614 -4.13995,-6.07013 -4.13995,-8.27374 0,-2.30837 0.75819,-4.42109 2.02184,-6.17566 8.67103,-12.06017 7.90682,-22.244069 7.90682,-22.244069 0,0 13.66545,13.027569 12.2634,28.419729 -0.36706,4.06755 -1.34789,6.22726 -4.65744,8.79441"
   style="fill:none;stroke:#000000;stroke-width:6.15432px;stroke-linecap:round;stroke-miterlimit:1.5"
   id="path134" />
</svg>
