<?xml version="1.0" encoding="UTF-8" standalone="no"?>
<svg
   xmlns:dc="http://purl.org/dc/elements/1.1/"
   xmlns:cc="http://creativecommons.org/ns#"
   xmlns:rdf="http://www.w3.org/1999/02/22-rdf-syntax-ns#"
   xmlns:svg="http://www.w3.org/2000/svg"
   xmlns="http://www.w3.org/2000/svg"
   xmlns:sodipodi="http://sodipodi.sourceforge.net/DTD/sodipodi-0.dtd"
   xmlns:inkscape="http://www.inkscape.org/namespaces/inkscape"
   width="1024"
   height="1024"
   viewBox="0 0 1024 1024"
   version="1.1"
   xml:space="preserve"
   style="clip-rule:evenodd;fill-rule:evenodd;stroke-linejoin:round;stroke-miterlimit:2"
   id="svg232"
   sodipodi:docname="HVO Huislogo 2.svg"
   inkscape:version="1.0.1 (3bc2e813f5, 2020-09-07)"><metadata
   id="metadata238"><rdf:RDF><cc:Work
       rdf:about=""><dc:format>image/svg+xml</dc:format><dc:type
         rdf:resource="http://purl.org/dc/dcmitype/StillImage" /><dc:title></dc:title></cc:Work></rdf:RDF></metadata><defs
   id="defs236" /><sodipodi:namedview
   pagecolor="#ffffff"
   bordercolor="#666666"
   borderopacity="1"
   objecttolerance="10"
   gridtolerance="10"
   guidetolerance="10"
   inkscape:pageopacity="0"
   inkscape:pageshadow="2"
   inkscape:window-width="1920"
   inkscape:window-height="1019"
   id="namedview234"
   showgrid="false"
   inkscape:zoom="0.86462449"
   inkscape:cx="664.80419"
   inkscape:cy="641.61234"
   inkscape:window-x="0"
   inkscape:window-y="32"
   inkscape:window-maximized="1"
   inkscape:current-layer="svg232"
   inkscape:document-rotation="0" />
    <g
   transform="matrix(4.018778,0,0,4.018778,-4596.4192,-2422.9571)"
   id="g230">
        <g
   transform="translate(-1150.63,-195.493)"
   id="g228">
            <g
   transform="translate(835.736,402.826)"
   id="g222">
                <g
   transform="matrix(0.692385,0,0,0.699257,720.233,-633.642)"
   id="g178">
                    <g
   transform="matrix(0.152555,-1.42209,1.4362,0.151055,-1361.09,3000.8)"
   id="g4">
                        <path
   d="m 1123.63,1600.15 v 10.78 h -3.37 v -26.04 h 3.37 v 11.89 h 8.04 v -11.89 h 3.37 v 26.04 h -3.37 v -10.78 z"
   style="fill-rule:nonzero"
   id="path2" />
                    </g>
                    <g
   transform="matrix(0.152555,-1.42209,1.4362,0.151055,-1361.09,3000.8)"
   id="g8">
                        <path
   d="m 1130.84,1595.95 v -11.06 c 0,-0.46 0.37,-0.84 0.83,-0.84 h 3.37 c 0.46,0 0.83,0.38 0.83,0.84 v 26.04 c 0,0.46 -0.37,0.83 -0.83,0.83 h -3.37 c -0.46,0 -0.83,-0.37 -0.83,-0.83 v -9.94 h -6.38 v 9.94 c 0,0.46 -0.37,0.83 -0.83,0.83 h -3.37 c -0.46,0 -0.83,-0.37 -0.83,-0.83 v -26.04 c 0,-0.46 0.37,-0.84 0.83,-0.84 h 3.37 c 0.46,0 0.83,0.38 0.83,0.84 v 11.06 z m 1.67,14.14 h 1.7 v -24.37 h -1.7 v 11.06 c 0,0.46 -0.38,0.84 -0.84,0.84 h -8.04 c -0.46,0 -0.83,-0.38 -0.83,-0.84 v -11.06 h -1.7 v 24.37 h 1.7 v -9.94 c 0,-0.46 0.37,-0.83 0.83,-0.83 h 8.04 c 0.46,0 0.84,0.37 0.84,0.83 z"
   id="path6" />
                    </g>
                    <g
   transform="matrix(0.433926,-1.36402,1.37756,0.429661,-1554.36,2471.42)"
   id="g12">
                        <path
   d="m 1136.1,1566.78 v 3.36 h -10.66 v 7.96 h 10.66 v 3.37 h -10.66 v 7.96 h 10.66 v 3.39 h -14.03 v -26.04 z"
   style="fill-rule:nonzero"
   id="path10" />
                    </g>
                    <g
   transform="matrix(0.433926,-1.36402,1.37756,0.429661,-1554.36,2471.42)"
   id="g16">
                        <path
   d="m 1126.28,1588.6 h 9.82 c 0.46,0 0.84,0.37 0.84,0.83 v 3.39 c 0,0.46 -0.38,0.83 -0.84,0.83 h -14.03 c -0.46,0 -0.83,-0.37 -0.83,-0.83 v -26.04 c 0,-0.46 0.37,-0.84 0.83,-0.84 h 14.03 c 0.46,0 0.84,0.38 0.84,0.84 v 3.36 c 0,0.47 -0.38,0.84 -0.84,0.84 h -9.82 v 6.29 h 9.82 c 0.46,0 0.84,0.37 0.84,0.83 v 3.37 c 0,0.46 -0.38,0.84 -0.84,0.84 h -9.82 z m 8.99,-19.29 v -1.7 h -12.36 v 24.37 h 12.36 v -1.71 h -9.83 c -0.46,0 -0.83,-0.38 -0.83,-0.84 v -7.96 c 0,-0.46 0.37,-0.83 0.83,-0.83 h 9.83 v -1.7 h -9.83 c -0.46,0 -0.83,-0.38 -0.83,-0.84 v -7.96 c 0,-0.46 0.37,-0.83 0.83,-0.83 z"
   id="path14" />
                    </g>
                    <g
   transform="matrix(0.657462,-1.27332,1.28596,0.651,-1635.71,2011.36)"
   id="g20">
                        <path
   d="m 1134.46,1555.03 v 22.67 h -3.38 v -22.67 h -6.07 v -3.37 h 15.53 v 3.37 z"
   style="fill-rule:nonzero"
   id="path18" />
                    </g>
                    <g
   transform="matrix(0.657462,-1.27332,1.28596,0.651,-1635.71,2011.36)"
   id="g24">
                        <path
   d="m 1130.25,1555.86 h -5.24 c -0.46,0 -0.84,-0.37 -0.84,-0.83 v -3.37 c 0,-0.46 0.38,-0.83 0.84,-0.83 h 15.53 c 0.46,0 0.83,0.37 0.83,0.83 v 3.37 c 0,0.46 -0.37,0.83 -0.83,0.83 h -5.24 v 21.84 c 0,0.46 -0.38,0.84 -0.84,0.84 h -3.38 c -0.46,0 -0.83,-0.38 -0.83,-0.84 z m 9.45,-1.66 v -1.7 h -13.86 v 1.7 h 5.24 c 0.46,0 0.83,0.37 0.83,0.83 v 21.84 h 1.72 v -21.84 c 0,-0.46 0.38,-0.83 0.83,-0.83 z"
   id="path22" />
                    </g>
                    <g
   transform="matrix(1.00314,-1.02886,1.03907,0.993281,-1608.06,1199.07)"
   id="g28">
                        <path
   d="m 1145.83,1556.8 -9.46,-26.05 h 3.58 l 6.79,18.67 6.8,-18.67 h 3.6 l -9.49,26.05 z"
   style="fill-rule:nonzero"
   id="path26" />
                    </g>
                    <g
   transform="matrix(1.00314,-1.02886,1.03907,0.993281,-1608.06,1199.07)"
   id="g32">
                        <path
   d="m 1146.74,1546.99 6.02,-16.52 c 0.12,-0.33 0.43,-0.55 0.78,-0.55 h 3.6 c 0.27,0 0.52,0.13 0.68,0.36 0.16,0.22 0.19,0.5 0.1,0.76 l -9.49,26.04 c -0.12,0.33 -0.43,0.55 -0.78,0.55 h -1.82 c -0.35,0 -0.67,-0.22 -0.79,-0.55 l -9.45,-26.04 c -0.1,-0.26 -0.06,-0.54 0.1,-0.76 0.15,-0.23 0.41,-0.36 0.68,-0.36 h 3.58 c 0.35,0 0.66,0.22 0.78,0.55 z m -7.37,-15.4 h -1.81 l 8.85,24.37 h 0.66 l 8.88,-24.37 h -1.83 l -6.6,18.12 c -0.12,0.33 -0.43,0.55 -0.78,0.55 -0.35,0 -0.67,-0.22 -0.79,-0.55 z"
   id="path30" />
                    </g>
                    <g
   transform="matrix(1.17989,-0.824763,0.83295,1.1683,-1473.32,701.802)"
   id="g36">
                        <path
   d="m 1164.73,1517.3 v 3.37 h -10.66 v 7.96 h 10.66 v 3.37 h -10.66 v 7.95 h 10.66 v 3.39 h -14.03 v -26.04 z"
   style="fill-rule:nonzero"
   id="path34" />
                    </g>
                    <g
   transform="matrix(1.17989,-0.824763,0.83295,1.1683,-1473.32,701.802)"
   id="g40">
                        <path
   d="m 1154.9,1539.12 h 9.83 c 0.46,0 0.84,0.37 0.84,0.83 v 3.39 c 0,0.46 -0.38,0.83 -0.84,0.83 h -14.03 c -0.46,0 -0.83,-0.37 -0.83,-0.83 v -26.04 c 0,-0.46 0.37,-0.84 0.83,-0.84 h 14.03 c 0.46,0 0.84,0.38 0.84,0.84 v 3.37 c 0,0.46 -0.38,0.83 -0.84,0.83 h -9.83 v 6.29 h 9.83 c 0.46,0 0.84,0.38 0.84,0.84 v 3.37 c 0,0.46 -0.38,0.83 -0.84,0.83 h -9.83 z m 9,-19.29 v -1.7 h -12.36 v 24.38 h 12.36 v -1.72 h -9.83 c -0.46,0 -0.83,-0.38 -0.83,-0.84 V 1532 c 0,-0.46 0.37,-0.84 0.83,-0.84 h 9.83 v -1.7 h -9.83 c -0.46,0 -0.83,-0.37 -0.83,-0.83 v -7.96 c 0,-0.46 0.37,-0.84 0.83,-0.84 z"
   id="path38" />
                    </g>
                    <g
   transform="matrix(1.32318,-0.57324,0.57893,1.31017,-1238.37,200.652)"
   id="g44">
                        <path
   d="m 1167.72,1510.69 v 10.94 h 3.08 c 1.49,0 2.78,-0.54 3.84,-1.61 1.07,-1.07 1.61,-2.36 1.61,-3.88 0,-1.51 -0.54,-2.79 -1.61,-3.86 -1.06,-1.06 -2.35,-1.59 -3.84,-1.59 z m 3.08,14.32 h -3.08 v 8.33 h -3.37 v -26.04 h 7.39 c 2.09,0.29 3.86,1.15 5.31,2.59 1.72,1.74 2.58,3.82 2.58,6.25 0,2.45 -0.86,4.55 -2.58,6.28 -1.2,1.2 -2.11,1.87 -2.74,2.02 l 5.78,8.9 H 1176 Z"
   style="fill-rule:nonzero"
   id="path42" />
                    </g>
                    <g
   transform="matrix(1.32318,-0.57324,0.57893,1.31017,-1238.37,200.652)"
   id="g48">
                        <path
   d="m 1168.55,1525.84 v 7.5 c 0,0.47 -0.37,0.84 -0.83,0.84 h -3.37 c -0.46,0 -0.83,-0.37 -0.83,-0.84 v -26.04 c 0,-0.46 0.37,-0.83 0.83,-0.83 h 7.39 c 0.04,0 0.07,0 0.11,0.01 2.28,0.3 4.21,1.25 5.79,2.82 1.88,1.9 2.83,4.18 2.83,6.84 0,2.68 -0.95,4.97 -2.84,6.87 -0.81,0.81 -1.51,1.4 -2.11,1.77 l 5.27,8.11 c 0.16,0.26 0.18,0.58 0.03,0.85 -0.14,0.27 -0.43,0.44 -0.73,0.44 H 1176 c -0.28,0 -0.55,-0.15 -0.7,-0.39 l -4.97,-7.95 z m 10.01,6.67 -4.95,-7.62 c -0.15,-0.22 -0.17,-0.51 -0.07,-0.76 0.1,-0.25 0.31,-0.44 0.58,-0.5 0.54,-0.13 1.3,-0.76 2.33,-1.79 1.57,-1.58 2.35,-3.48 2.35,-5.7 0,-2.2 -0.78,-4.09 -2.34,-5.66 -1.31,-1.3 -2.9,-2.08 -4.78,-2.34 h -6.5 v 24.37 h 1.71 v -7.5 c 0,-0.46 0.37,-0.83 0.83,-0.83 h 3.08 c 0.28,0 0.55,0.15 0.7,0.39 l 4.97,7.94 z m -10.84,-22.65 c -0.46,0 -0.83,0.37 -0.83,0.83 v 10.94 c 0,0.46 0.37,0.83 0.83,0.83 h 3.08 c 1.72,0 3.2,-0.62 4.43,-1.85 1.23,-1.23 1.85,-2.72 1.85,-4.47 0,-1.74 -0.62,-3.22 -1.85,-4.45 -1.23,-1.22 -2.71,-1.83 -4.43,-1.83 z m 0.83,10.93 h 2.25 c 1.26,0 2.35,-0.45 3.26,-1.36 0.9,-0.9 1.35,-2 1.35,-3.29 0,-1.28 -0.45,-2.37 -1.35,-3.27 -0.91,-0.9 -2,-1.35 -3.26,-1.35 h -2.25 z"
   id="path46" />
                    </g>
                    <g
   transform="matrix(1.41479,-0.287516,0.29037,1.40089,-899.681,-265.882)"
   id="g52">
                        <path
   d="m 1184.31,1503.15 v 10.94 h 3.08 c 1.49,0 2.78,-0.54 3.85,-1.6 1.07,-1.07 1.6,-2.37 1.6,-3.89 0,-1.5 -0.53,-2.79 -1.6,-3.85 -1.07,-1.07 -2.36,-1.6 -3.85,-1.6 z m 3.08,14.32 h -3.08 v 8.34 h -3.37 v -26.04 h 7.39 c 2.1,0.28 3.86,1.14 5.31,2.58 1.72,1.74 2.59,3.82 2.59,6.25 0,2.46 -0.87,4.55 -2.59,6.29 -1.2,1.19 -2.11,1.86 -2.74,2.01 l 5.78,8.91 h -4.08 z"
   style="fill-rule:nonzero"
   id="path50" />
                    </g>
                    <g
   transform="matrix(1.41479,-0.287516,0.29037,1.40089,-899.681,-265.882)"
   id="g56">
                        <path
   d="m 1185.14,1518.31 v 7.5 c 0,0.46 -0.37,0.83 -0.83,0.83 h -3.37 c -0.46,0 -0.83,-0.37 -0.83,-0.83 v -26.04 c 0,-0.46 0.37,-0.84 0.83,-0.84 h 7.39 c 0.04,0 0.08,0 0.11,0.01 2.29,0.31 4.21,1.25 5.79,2.83 1.89,1.89 2.83,4.17 2.83,6.83 0,2.69 -0.94,4.98 -2.83,6.88 -0.81,0.81 -1.52,1.39 -2.11,1.76 l 5.26,8.11 c 0.17,0.26 0.18,0.59 0.03,0.85 -0.14,0.27 -0.42,0.44 -0.73,0.44 h -4.08 c -0.29,0 -0.56,-0.15 -0.71,-0.39 l -4.96,-7.94 z m 10.01,6.66 -4.95,-7.61 c -0.14,-0.23 -0.17,-0.51 -0.07,-0.76 0.1,-0.26 0.31,-0.44 0.58,-0.51 0.55,-0.13 1.3,-0.76 2.34,-1.79 1.56,-1.57 2.34,-3.47 2.34,-5.7 0,-2.2 -0.78,-4.09 -2.34,-5.66 -1.3,-1.3 -2.9,-2.08 -4.78,-2.34 h -6.49 v 24.37 h 1.7 v -7.5 c 0,-0.46 0.37,-0.83 0.83,-0.83 h 3.08 c 0.28,0 0.55,0.15 0.71,0.39 l 4.96,7.94 z m -10.84,-22.65 c -0.46,0 -0.83,0.37 -0.83,0.83 v 10.94 c 0,0.46 0.37,0.83 0.83,0.83 h 3.08 c 1.73,0 3.2,-0.61 4.44,-1.85 1.23,-1.23 1.84,-2.72 1.84,-4.47 0,-1.74 -0.61,-3.22 -1.84,-4.45 -1.24,-1.22 -2.72,-1.83 -4.44,-1.83 0,0 -3.08,0 -3.08,0 z m 0.83,10.94 h 2.25 c 1.27,0 2.35,-0.46 3.26,-1.36 0.91,-0.91 1.36,-2.01 1.36,-3.3 0,-1.27 -0.45,-2.36 -1.36,-3.26 -0.91,-0.91 -1.99,-1.36 -3.26,-1.36 h -2.25 z"
   id="path54" />
                    </g>
                    <g
   transform="matrix(1.44428,-0.00343523,0.00346933,1.43008,-496.662,-645.157)"
   id="g60">
                        <path
   d="m 1212.94,1495.94 v 3.37 h -10.66 v 7.96 h 10.66 v 3.37 h -10.66 v 7.96 h 10.66 v 3.38 h -14.03 v -26.04 z"
   style="fill-rule:nonzero"
   id="path58" />
                    </g>
                    <g
   transform="matrix(1.44428,-0.00343523,0.00346933,1.43008,-496.662,-645.157)"
   id="g64">
                        <path
   d="m 1203.11,1517.77 h 9.83 c 0.46,0 0.83,0.37 0.83,0.83 v 3.38 c 0,0.46 -0.37,0.84 -0.83,0.84 h -14.03 c -0.46,0 -0.84,-0.38 -0.84,-0.84 v -26.04 c 0,-0.46 0.38,-0.83 0.84,-0.83 h 14.03 c 0.46,0 0.83,0.37 0.83,0.83 v 3.37 c 0,0.46 -0.37,0.83 -0.83,0.83 h -9.83 v 6.3 h 9.83 c 0.46,0 0.83,0.37 0.83,0.83 v 3.37 c 0,0.46 -0.37,0.83 -0.83,0.83 h -9.83 z m 8.99,-19.29 v -1.7 h -12.36 v 24.37 h 12.36 v -1.72 h -9.82 c -0.46,0 -0.84,-0.37 -0.84,-0.83 v -7.96 c 0,-0.46 0.38,-0.83 0.84,-0.83 h 9.82 v -1.71 h -9.82 c -0.46,0 -0.84,-0.37 -0.84,-0.83 v -7.96 c 0,-0.46 0.38,-0.83 0.84,-0.83 z"
   id="path62" />
                    </g>
                    <g
   transform="matrix(1.35176,0.503627,-0.508626,1.33847,395.881,-1125.42)"
   id="g68">
                        <path
   d="m 1237.69,1495.7 c 3.68,0 6.82,1.31 9.42,3.91 2.6,2.6 3.91,5.75 3.91,9.42 0,3.68 -1.31,6.82 -3.91,9.43 -2.6,2.6 -5.74,3.9 -9.42,3.9 -3.68,0 -6.82,-1.3 -9.43,-3.9 -2.6,-2.61 -3.9,-5.75 -3.9,-9.43 0,-3.67 1.3,-6.82 3.9,-9.42 2.61,-2.6 5.75,-3.91 9.43,-3.91 z m 0,3.41 c -2.75,0 -5.09,0.96 -7.03,2.9 -1.93,1.94 -2.9,4.28 -2.9,7.02 0,2.75 0.97,5.09 2.91,7.04 1.94,1.94 4.28,2.91 7.02,2.91 2.74,0 5.08,-0.97 7.02,-2.91 1.94,-1.95 2.91,-4.29 2.91,-7.04 0,-2.74 -0.97,-5.08 -2.91,-7.02 -1.94,-1.94 -4.28,-2.9 -7.02,-2.9 z"
   style="fill-rule:nonzero"
   id="path66" />
                    </g>
                    <g
   transform="matrix(1.35176,0.503627,-0.508626,1.33847,395.881,-1125.42)"
   id="g72">
                        <path
   d="m 1237.69,1494.87 c -3.91,0 -7.25,1.38 -10.02,4.15 -2.76,2.77 -4.15,6.11 -4.15,10.01 0,3.91 1.39,7.25 4.15,10.02 2.77,2.76 6.11,4.15 10.02,4.15 3.91,0 7.24,-1.39 10.01,-4.15 2.77,-2.77 4.15,-6.11 4.15,-10.02 0,-3.9 -1.38,-7.24 -4.15,-10.01 -2.77,-2.77 -6.1,-4.15 -10.01,-4.15 z m 0,1.67 c 3.45,0 6.39,1.22 8.83,3.66 2.44,2.44 3.66,5.39 3.66,8.83 0,3.45 -1.22,6.4 -3.66,8.84 -2.44,2.44 -5.38,3.66 -8.83,3.66 -3.45,0 -6.4,-1.22 -8.84,-3.66 -2.44,-2.44 -3.66,-5.39 -3.66,-8.84 0,-3.44 1.22,-6.39 3.66,-8.83 2.44,-2.44 5.39,-3.66 8.84,-3.66 z m 0,1.73 c -2.98,0 -5.52,1.05 -7.61,3.15 -2.1,2.1 -3.16,4.64 -3.16,7.61 0,2.98 1.06,5.52 3.16,7.62 2.11,2.11 4.64,3.16 7.61,3.16 2.97,0 5.51,-1.05 7.61,-3.16 2.1,-2.1 3.15,-4.64 3.15,-7.62 0,-2.97 -1.05,-5.51 -3.15,-7.61 -2.1,-2.1 -4.64,-3.15 -7.61,-3.15 z m 0,1.67 c 2.51,0 4.66,0.89 6.43,2.66 1.77,1.78 2.66,3.92 2.66,6.43 0,2.52 -0.89,4.67 -2.66,6.45 -1.77,1.78 -3.92,2.66 -6.43,2.66 -2.51,0 -4.65,-0.88 -6.43,-2.66 -1.78,-1.78 -2.67,-3.93 -2.67,-6.45 0,-2.51 0.89,-4.65 2.66,-6.43 1.78,-1.77 3.92,-2.66 6.44,-2.66 z"
   id="path70" />
                    </g>
                    <g
   transform="matrix(1.13988,0.878209,-0.886926,1.12867,1246.14,-1283.37)"
   id="g76">
                        <path
   d="m 1262.82,1504.51 c 3.68,0 6.82,1.31 9.43,3.91 2.6,2.6 3.9,5.74 3.9,9.42 0,3.68 -1.3,6.82 -3.9,9.43 -2.61,2.6 -5.75,3.9 -9.43,3.9 -3.68,0 -6.82,-1.3 -9.42,-3.9 -2.6,-2.61 -3.91,-5.75 -3.91,-9.43 0,-3.68 1.31,-6.82 3.91,-9.42 2.6,-2.6 5.74,-3.91 9.42,-3.91 z m 0,3.4 c -2.74,0 -5.08,0.97 -7.02,2.91 -1.94,1.94 -2.91,4.28 -2.91,7.02 0,2.75 0.98,5.09 2.92,7.04 1.94,1.94 4.28,2.91 7.01,2.91 2.75,0 5.09,-0.97 7.03,-2.91 1.93,-1.95 2.9,-4.29 2.9,-7.04 0,-2.74 -0.97,-5.08 -2.9,-7.02 -1.94,-1.94 -4.28,-2.91 -7.03,-2.91 z"
   style="fill-rule:nonzero"
   id="path74" />
                    </g>
                    <g
   transform="matrix(1.13988,0.878209,-0.886926,1.12867,1246.14,-1283.37)"
   id="g80">
                        <path
   d="m 1262.82,1503.68 c -3.91,0 -7.24,1.38 -10.01,4.15 -2.77,2.77 -4.15,6.11 -4.15,10.01 0,3.91 1.38,7.25 4.15,10.02 2.77,2.76 6.1,4.15 10.01,4.15 3.91,0 7.25,-1.39 10.02,-4.15 2.76,-2.77 4.15,-6.11 4.15,-10.02 0,-3.9 -1.39,-7.24 -4.15,-10.01 -2.77,-2.77 -6.11,-4.15 -10.02,-4.15 z m 0,1.67 c 3.45,0 6.4,1.22 8.84,3.66 2.44,2.44 3.66,5.38 3.66,8.83 0,3.45 -1.22,6.4 -3.66,8.84 -2.44,2.44 -5.39,3.66 -8.84,3.66 -3.44,0 -6.39,-1.22 -8.83,-3.66 -2.44,-2.44 -3.66,-5.39 -3.66,-8.84 0,-3.45 1.22,-6.39 3.66,-8.83 2.44,-2.44 5.39,-3.66 8.83,-3.66 z m 0,1.73 c -2.97,0 -5.51,1.05 -7.61,3.15 -2.1,2.1 -3.15,4.64 -3.15,7.61 0,2.98 1.05,5.52 3.16,7.62 2.1,2.11 4.64,3.16 7.6,3.16 2.98,0 5.52,-1.05 7.62,-3.16 2.1,-2.1 3.15,-4.64 3.15,-7.62 0,-2.97 -1.05,-5.51 -3.16,-7.61 -2.09,-2.1 -4.63,-3.15 -7.61,-3.15 z m 0,1.67 c 2.52,0 4.66,0.89 6.44,2.66 1.77,1.77 2.66,3.92 2.66,6.43 0,2.52 -0.89,4.67 -2.66,6.45 -1.78,1.78 -3.92,2.66 -6.44,2.66 -2.5,0 -4.64,-0.88 -6.42,-2.66 -1.78,-1.78 -2.67,-3.93 -2.67,-6.45 0,-2.51 0.89,-4.66 2.66,-6.43 1.77,-1.77 3.92,-2.66 6.43,-2.66 z"
   id="path78" />
                    </g>
                    <g
   transform="matrix(0.906474,1.11334,-1.12439,0.897565,1931.14,-1237.44)"
   id="g84">
                        <path
   d="m 1277.65,1534.38 c -1.84,-0.62 -3.34,-1.5 -4.48,-2.65 -1.15,-1.14 -1.72,-2.56 -1.72,-4.26 0,-1.66 0.6,-3.08 1.78,-4.28 1.19,-1.19 2.63,-1.79 4.33,-1.79 1.67,0 3.1,0.6 4.29,1.78 0.67,0.65 1.24,1.69 1.69,3.11 l -3.06,1.2 c -0.36,-1 -0.7,-1.65 -1,-1.95 -0.54,-0.52 -1.18,-0.78 -1.92,-0.78 -0.76,0 -1.41,0.26 -1.94,0.79 -0.53,0.52 -0.8,1.16 -0.8,1.92 0,0.76 0.27,1.41 0.8,1.94 0.59,0.59 1.42,1.12 2.47,1.61 2.04,0.66 3.77,1.71 5.19,3.13 1.6,1.57 2.4,3.48 2.4,5.73 0,2.24 -0.8,4.16 -2.39,5.75 -1.59,1.59 -3.5,2.39 -5.73,2.39 -2.25,0 -4.17,-0.8 -5.75,-2.4 -1.27,-1.27 -2.07,-3.02 -2.41,-5.25 l 3.27,-1.19 c 0.21,1.92 0.71,3.28 1.51,4.08 0.94,0.93 2.06,1.4 3.38,1.4 1.31,0 2.43,-0.47 3.36,-1.4 0.94,-0.93 1.4,-2.06 1.4,-3.38 0,-1.32 -0.46,-2.44 -1.4,-3.37 -0.89,-0.89 -1.98,-1.6 -3.27,-2.13 z"
   style="fill-rule:nonzero"
   id="path82" />
                    </g>
                    <g
   transform="matrix(0.906474,1.11334,-1.12439,0.897565,1931.14,-1237.44)"
   id="g88">
                        <path
   d="m 1277.36,1535.15 c -1.97,-0.66 -3.56,-1.61 -4.78,-2.83 -1.3,-1.3 -1.96,-2.92 -1.96,-4.85 0,-1.88 0.67,-3.51 2.02,-4.86 1.35,-1.36 2.99,-2.04 4.92,-2.04 1.89,0 3.52,0.67 4.87,2.01 0.75,0.72 1.4,1.87 1.91,3.45 0.13,0.42 -0.08,0.87 -0.49,1.03 l -3.06,1.21 c -0.21,0.08 -0.44,0.07 -0.65,-0.02 -0.2,-0.09 -0.36,-0.26 -0.44,-0.47 -0.31,-0.84 -0.56,-1.4 -0.81,-1.65 -0.37,-0.36 -0.81,-0.54 -1.33,-0.54 -0.53,0 -0.99,0.18 -1.36,0.55 -0.36,0.36 -0.55,0.81 -0.55,1.33 0,0.53 0.19,0.98 0.55,1.35 0.53,0.52 1.27,0.99 2.2,1.43 2.15,0.7 3.97,1.81 5.47,3.3 1.76,1.74 2.64,3.85 2.64,6.33 0,2.47 -0.88,4.59 -2.63,6.34 -1.75,1.75 -3.86,2.63 -6.32,2.63 -2.48,0 -4.6,-0.88 -6.34,-2.64 -1.38,-1.38 -2.28,-3.28 -2.64,-5.72 -0.06,-0.39 0.16,-0.77 0.54,-0.91 l 3.27,-1.19 c 0.24,-0.08 0.5,-0.06 0.72,0.08 0.22,0.14 0.36,0.36 0.39,0.62 0.18,1.68 0.57,2.88 1.28,3.58 0.77,0.77 1.69,1.16 2.78,1.16 1.08,0 2,-0.39 2.77,-1.16 0.78,-0.77 1.16,-1.7 1.16,-2.79 0,-1.09 -0.39,-2.01 -1.16,-2.78 -0.81,-0.81 -1.8,-1.46 -2.97,-1.95 z m 5.13,-9.34 c -0.35,-0.9 -0.75,-1.58 -1.22,-2.04 -1.04,-1.02 -2.27,-1.53 -3.71,-1.53 -1.47,0 -2.71,0.51 -3.74,1.54 -1.02,1.03 -1.54,2.26 -1.54,3.69 0,1.46 0.49,2.69 1.48,3.67 1.06,1.06 2.45,1.87 4.16,2.45 0.01,0 0.03,0.01 0.05,0.02 1.4,0.57 2.58,1.34 3.54,2.31 1.1,1.1 1.65,2.41 1.65,3.96 0,1.55 -0.55,2.88 -1.65,3.97 -1.09,1.1 -2.41,1.65 -3.95,1.65 -1.55,0 -2.87,-0.55 -3.96,-1.65 -0.75,-0.75 -1.31,-1.92 -1.61,-3.54 l -1.65,0.6 c 0.36,1.72 1.03,3.1 2.06,4.13 1.42,1.43 3.14,2.14 5.16,2.14 2,0 3.72,-0.71 5.14,-2.14 1.43,-1.43 2.14,-3.15 2.14,-5.16 0,-2.02 -0.71,-3.73 -2.15,-5.14 -1.33,-1.33 -2.95,-2.31 -4.86,-2.92 -0.03,-0.01 -0.06,-0.03 -0.09,-0.04 -1.15,-0.54 -2.05,-1.13 -2.71,-1.78 -0.69,-0.69 -1.04,-1.54 -1.04,-2.53 0,-0.99 0.35,-1.83 1.04,-2.52 0.69,-0.68 1.54,-1.03 2.53,-1.03 0.97,0 1.81,0.34 2.5,1.03 0.27,0.26 0.57,0.75 0.89,1.46 z"
   id="path86" />
                    </g>
                    <g
   transform="matrix(0.689241,1.25674,-1.26921,0.682467,2455.05,-1089.98)"
   id="g92">
                        <path
   d="m 1289.32,1537.9 v 22.67 h -3.39 v -22.67 h -6.07 v -3.37 h 15.53 v 3.37 z"
   style="fill-rule:nonzero"
   id="path90" />
                    </g>
                    <g
   transform="matrix(0.689241,1.25674,-1.26921,0.682467,2455.05,-1089.98)"
   id="g96">
                        <path
   d="m 1285.1,1538.73 h -5.24 c -0.46,0 -0.83,-0.37 -0.83,-0.83 v -3.37 c 0,-0.46 0.37,-0.83 0.83,-0.83 h 15.53 c 0.46,0 0.83,0.37 0.83,0.83 v 3.37 c 0,0.46 -0.37,0.83 -0.83,0.83 h -5.24 v 21.84 c 0,0.46 -0.37,0.83 -0.83,0.83 h -3.39 c -0.46,0 -0.83,-0.37 -0.83,-0.83 z m 9.46,-1.66 v -1.71 h -13.87 v 1.71 h 5.24 c 0.46,0 0.84,0.37 0.84,0.83 v 21.84 h 1.71 v -21.84 c 0,-0.46 0.38,-0.83 0.84,-0.83 z"
   id="path94" />
                    </g>
                    <g
   transform="matrix(0.43075,1.365,-1.37855,0.426517,2984.25,-825.496)"
   id="g100">
                        <path
   d="m 1303.51,1548.92 v 3.37 h -10.66 v 7.96 h 10.66 v 3.37 h -10.66 v 7.96 h 10.66 v 3.39 h -14.03 v -26.05 z"
   style="fill-rule:nonzero"
   id="path98" />
                    </g>
                    <g
   transform="matrix(0.43075,1.365,-1.37855,0.426517,2984.25,-825.496)"
   id="g104">
                        <path
   d="m 1293.68,1570.75 h 9.83 c 0.46,0 0.83,0.37 0.83,0.83 v 3.39 c 0,0.46 -0.37,0.83 -0.83,0.83 h -14.03 c -0.46,0 -0.83,-0.37 -0.83,-0.83 v -26.05 c 0,-0.46 0.37,-0.83 0.83,-0.83 h 14.03 c 0.46,0 0.83,0.37 0.83,0.83 v 3.37 c 0,0.46 -0.37,0.84 -0.83,0.84 h -9.83 v 6.29 h 9.83 c 0.46,0 0.83,0.37 0.83,0.83 v 3.37 c 0,0.46 -0.37,0.83 -0.83,0.83 h -9.83 z m 9,-19.29 v -1.7 h -12.37 v 24.37 h 12.37 v -1.72 h -9.83 c -0.46,0 -0.83,-0.37 -0.83,-0.83 v -7.96 c 0,-0.46 0.37,-0.83 0.83,-0.83 h 9.83 v -1.7 h -9.83 c -0.46,0 -0.83,-0.38 -0.83,-0.84 v -7.96 c 0,-0.46 0.37,-0.83 0.83,-0.83 z"
   id="path102" />
                    </g>
                    <g
   transform="matrix(0.136817,1.42366,-1.43779,0.135472,3486.19,-429.387)"
   id="g108">
                        <path
   d="m 1294.91,1565.1 h 3.07 l 10.74,18.58 v -18.58 h 3.39 v 26.04 h -2.95 l -10.88,-18.82 v 18.82 h -3.37 z"
   style="fill-rule:nonzero"
   id="path106" />
                    </g>
                    <g
   transform="matrix(0.136817,1.42366,-1.43779,0.135472,3486.19,-429.387)"
   id="g112">
                        <path
   d="m 1299.11,1575.43 v 15.71 c 0,0.46 -0.37,0.83 -0.83,0.83 h -3.37 c -0.46,0 -0.84,-0.37 -0.84,-0.83 v -26.04 c 0,-0.46 0.38,-0.84 0.84,-0.84 h 3.07 c 0.3,0 0.58,0.16 0.72,0.42 l 9.19,15.9 v -15.48 c 0,-0.46 0.37,-0.84 0.83,-0.84 h 3.39 c 0.46,0 0.83,0.38 0.83,0.84 v 26.04 c 0,0.46 -0.37,0.83 -0.83,0.83 h -2.95 c -0.29,0 -0.57,-0.16 -0.72,-0.41 z m -1.61,-9.5 h -1.76 v 24.38 h 1.7 v -17.99 c 0,-0.37 0.25,-0.7 0.62,-0.8 0.36,-0.1 0.75,0.06 0.94,0.39 l 10.64,18.4 h 1.64 v -24.38 h -1.72 v 17.75 c 0,0.38 -0.26,0.71 -0.62,0.81 -0.36,0.1 -0.75,-0.06 -0.94,-0.39 z"
   id="path110" />
                    </g>
                    <g
   transform="matrix(0.940363,1.08543,-1.09621,0.93112,1907.81,-1020.98)"
   id="g116">
                        <path
   d="m 1126.72,1664.28 -2.23,-6.11 -2.22,6.11 z m -1.32,-13.47 9.47,26.05 h -3.58 l -3.35,-9.22 h -6.9 l -3.34,9.22 h -3.6 l 9.47,-26.05 z"
   style="fill-rule:nonzero"
   id="path114" />
                    </g>
                    <g
   transform="matrix(0.940363,1.08543,-1.09621,0.93112,1907.81,-1020.98)"
   id="g120">
                        <path
   d="m 1121.62,1668.48 -3.14,8.66 c -0.12,0.33 -0.43,0.55 -0.78,0.55 h -3.6 c -0.27,0 -0.52,-0.13 -0.68,-0.36 -0.16,-0.22 -0.19,-0.5 -0.1,-0.76 l 9.47,-26.04 c 0.12,-0.33 0.43,-0.55 0.78,-0.55 h 1.83 c 0.35,0 0.66,0.22 0.78,0.55 l 9.47,26.04 c 0.1,0.26 0.06,0.54 -0.1,0.76 -0.15,0.23 -0.41,0.36 -0.68,0.36 h -3.58 c -0.35,0 -0.66,-0.22 -0.78,-0.55 l -3.16,-8.66 z m 10.25,7.54 h 1.81 l -8.87,-24.37 h -0.65 l -8.87,24.37 h 1.82 l 3.14,-8.66 c 0.12,-0.33 0.43,-0.55 0.79,-0.55 h 6.9 c 0.35,0 0.66,0.22 0.78,0.55 z m -5.15,-10.91 c 0.27,0 0.52,-0.13 0.68,-0.36 0.16,-0.22 0.19,-0.51 0.1,-0.76 l -2.23,-6.11 c -0.12,-0.32 -0.43,-0.54 -0.78,-0.54 -0.36,0 -0.67,0.22 -0.79,0.55 l -2.21,6.1 c -0.09,0.26 -0.06,0.54 0.1,0.76 0.16,0.23 0.41,0.36 0.68,0.36 z m -3.26,-1.67 h 2.06 l -1.03,-2.83 z"
   id="path118" />
                    </g>
                    <g
   transform="matrix(1.15694,0.856046,-0.864543,1.14557,1299.47,-1134.14)"
   id="g124">
                        <path
   d="m 1132.49,1669.83 h 3.07 l 10.75,18.58 v -18.58 h 3.38 v 26.04 h -2.95 l -10.88,-18.81 v 18.81 h -3.37 z"
   style="fill-rule:nonzero"
   id="path122" />
                    </g>
                    <g
   transform="matrix(1.15694,0.856046,-0.864543,1.14557,1299.47,-1134.14)"
   id="g128">
                        <path
   d="m 1136.69,1680.16 v 15.71 c 0,0.46 -0.37,0.83 -0.83,0.83 h -3.37 c -0.46,0 -0.84,-0.37 -0.84,-0.83 v -26.04 c 0,-0.46 0.38,-0.83 0.84,-0.83 h 3.07 c 0.3,0 0.57,0.15 0.72,0.41 l 9.19,15.9 v -15.48 c 0,-0.46 0.38,-0.83 0.84,-0.83 h 3.38 c 0.46,0 0.83,0.37 0.83,0.83 v 26.04 c 0,0.46 -0.37,0.83 -0.83,0.83 h -2.95 c -0.29,0 -0.57,-0.15 -0.72,-0.41 z m -1.61,-9.5 h -1.76 v 24.38 h 1.7 v -17.98 c 0,-0.38 0.26,-0.71 0.62,-0.81 0.36,-0.1 0.75,0.06 0.94,0.39 l 10.65,18.4 h 1.63 v -24.38 h -1.72 v 17.75 c 0,0.38 -0.26,0.71 -0.62,0.81 -0.36,0.1 -0.75,-0.06 -0.94,-0.39 z"
   id="path126" />
                    </g>
                    <g
   transform="matrix(1.31845,0.583809,-0.589604,1.3055,661.93,-1107.7)"
   id="g132">
                        <path
   d="m 1152.73,1684.56 h 3.08 l 10.74,18.58 v -18.58 h 3.39 v 26.04 h -2.95 l -10.89,-18.82 v 18.82 h -3.37 z"
   style="fill-rule:nonzero"
   id="path130" />
                    </g>
                    <g
   transform="matrix(1.31845,0.583809,-0.589604,1.3055,661.93,-1107.7)"
   id="g136">
                        <path
   d="m 1156.93,1694.89 v 15.71 c 0,0.46 -0.37,0.83 -0.83,0.83 h -3.37 c -0.46,0 -0.83,-0.37 -0.83,-0.83 v -26.04 c 0,-0.46 0.37,-0.84 0.83,-0.84 h 3.08 c 0.3,0 0.57,0.16 0.72,0.42 l 9.19,15.9 v -15.48 c 0,-0.46 0.37,-0.84 0.83,-0.84 h 3.39 c 0.46,0 0.83,0.38 0.83,0.84 v 26.04 c 0,0.46 -0.37,0.83 -0.83,0.83 h -2.95 c -0.3,0 -0.57,-0.16 -0.72,-0.41 z m -1.6,-9.5 h -1.76 v 24.38 h 1.7 v -17.99 c 0,-0.37 0.25,-0.7 0.62,-0.8 0.36,-0.1 0.74,0.06 0.93,0.39 l 10.65,18.4 h 1.63 v -24.38 h -1.72 v 17.75 c 0,0.38 -0.25,0.71 -0.61,0.81 -0.37,0.1 -0.75,-0.06 -0.94,-0.39 z"
   id="path134" />
                    </g>
                    <g
   transform="matrix(1.42744,0.217793,-0.219955,1.41341,-93.0271,-876.201)"
   id="g140">
                        <path
   d="m 1189.14,1694.81 c 3.67,0 6.81,1.3 9.42,3.91 2.6,2.6 3.91,5.74 3.91,9.42 0,3.68 -1.31,6.82 -3.91,9.43 -2.61,2.6 -5.75,3.9 -9.42,3.9 -3.68,0 -6.82,-1.3 -9.43,-3.9 -2.6,-2.61 -3.9,-5.75 -3.9,-9.43 0,-3.68 1.3,-6.82 3.9,-9.42 2.61,-2.61 5.75,-3.91 9.43,-3.91 z m 0,3.4 c -2.75,0 -5.09,0.97 -7.03,2.91 -1.93,1.94 -2.9,4.28 -2.9,7.02 0,2.75 0.97,5.09 2.91,7.03 1.94,1.95 4.28,2.92 7.02,2.92 2.74,0 5.08,-0.97 7.02,-2.92 1.94,-1.94 2.9,-4.28 2.9,-7.03 0,-2.74 -0.96,-5.08 -2.9,-7.02 -1.94,-1.94 -4.28,-2.91 -7.02,-2.91 z"
   style="fill-rule:nonzero"
   id="path138" />
                    </g>
                    <g
   transform="matrix(1.42744,0.217793,-0.219955,1.41341,-93.0271,-876.201)"
   id="g144">
                        <path
   d="m 1189.14,1693.98 c -3.91,0 -7.25,1.38 -10.02,4.15 -2.76,2.77 -4.15,6.1 -4.15,10.01 0,3.91 1.39,7.25 4.15,10.01 2.77,2.77 6.11,4.16 10.02,4.16 3.9,0 7.24,-1.39 10.01,-4.16 2.77,-2.76 4.15,-6.1 4.15,-10.01 0,-3.91 -1.38,-7.24 -4.15,-10.01 -2.77,-2.77 -6.11,-4.15 -10.01,-4.15 z m 0,1.66 c 3.44,0 6.39,1.23 8.83,3.67 2.44,2.44 3.66,5.38 3.66,8.83 0,3.45 -1.22,6.4 -3.66,8.84 -2.44,2.44 -5.39,3.66 -8.83,3.66 -3.45,0 -6.4,-1.22 -8.84,-3.66 -2.44,-2.44 -3.66,-5.39 -3.66,-8.84 0,-3.45 1.22,-6.39 3.66,-8.83 2.44,-2.44 5.39,-3.67 8.84,-3.67 z m 0,1.74 c -2.98,0 -5.52,1.05 -7.62,3.15 -2.1,2.1 -3.15,4.64 -3.15,7.61 0,2.98 1.06,5.52 3.16,7.62 2.11,2.11 4.64,3.16 7.61,3.16 2.97,0 5.51,-1.05 7.61,-3.16 2.1,-2.1 3.15,-4.64 3.15,-7.62 0,-2.97 -1.05,-5.51 -3.15,-7.61 -2.1,-2.1 -4.64,-3.15 -7.61,-3.15 z m 0,1.67 c 2.51,0 4.66,0.88 6.43,2.66 1.77,1.77 2.66,3.92 2.66,6.43 0,2.52 -0.89,4.67 -2.66,6.45 -1.77,1.77 -3.92,2.66 -6.43,2.66 -2.51,0 -4.65,-0.89 -6.43,-2.67 -1.78,-1.77 -2.67,-3.92 -2.67,-6.44 0,-2.51 0.89,-4.66 2.66,-6.43 1.78,-1.78 3.92,-2.66 6.44,-2.66 z"
   id="path142" />
                    </g>
                    <g
   transform="matrix(1.40828,-0.317321,0.320471,1.39444,-1000.06,-200.44)"
   id="g148">
                        <path
   d="m 1223.21,1724.41 c 0.61,-4.15 1.79,-6.89 3.56,-8.21 1.77,-1.32 3.28,-2.44 4.53,-3.37 1.24,-0.94 2.36,-1.94 3.34,-3.01 0.98,-1.08 1.47,-2.27 1.47,-3.59 0,-1.31 -0.46,-2.43 -1.39,-3.35 -0.92,-0.92 -2.05,-1.38 -3.36,-1.38 -1.29,0 -2.4,0.46 -3.33,1.38 -0.8,0.79 -1.29,2.16 -1.49,4.1 l -3.37,-1.22 c 0.35,-2.25 1.16,-4.02 2.43,-5.3 1.59,-1.61 3.52,-2.41 5.76,-2.41 2.27,0 4.2,0.8 5.79,2.39 1.59,1.6 2.38,3.53 2.38,5.79 0,2.24 -0.77,4.19 -2.31,5.85 -0.98,1.05 -2.11,2.06 -3.41,3.03 -1.3,0.97 -2.74,2.06 -4.32,3.25 -1.39,1.03 -2.16,1.92 -2.33,2.67 h 12.37 v 3.38 z"
   style="fill-rule:nonzero"
   id="path146" />
                    </g>
                    <g
   transform="matrix(1.40828,-0.317321,0.320471,1.39444,-1000.06,-200.44)"
   id="g152">
                        <path
   d="m 1228.61,1720.19 h 10.92 c 0.46,0 0.84,0.38 0.84,0.84 v 3.38 c 0,0.46 -0.38,0.84 -0.84,0.84 h -16.32 c -0.25,0 -0.47,-0.11 -0.63,-0.29 -0.16,-0.18 -0.23,-0.43 -0.2,-0.67 0.65,-4.45 2,-7.34 3.89,-8.75 1.77,-1.32 3.28,-2.45 4.53,-3.38 1.2,-0.9 2.28,-1.87 3.23,-2.91 0.83,-0.9 1.25,-1.91 1.25,-3.02 0,-1.08 -0.38,-2 -1.15,-2.76 -0.76,-0.76 -1.69,-1.14 -2.77,-1.14 -1.06,0 -1.98,0.38 -2.75,1.14 -0.69,0.69 -1.07,1.9 -1.24,3.6 -0.02,0.25 -0.17,0.48 -0.38,0.62 -0.22,0.14 -0.49,0.16 -0.73,0.08 l -3.37,-1.22 c -0.37,-0.14 -0.6,-0.52 -0.54,-0.92 0.38,-2.45 1.28,-4.37 2.66,-5.76 1.76,-1.77 3.87,-2.66 6.35,-2.66 2.5,0 4.63,0.88 6.38,2.64 1.75,1.76 2.63,3.89 2.63,6.38 0,2.46 -0.85,4.59 -2.54,6.41 -1.01,1.09 -2.18,2.14 -3.52,3.14 -1.29,0.97 -2.73,2.05 -4.32,3.25 -0.58,0.43 -1.04,0.81 -1.38,1.16 z m 10.09,1.67 h -11.54 c -0.25,0 -0.49,-0.11 -0.65,-0.31 -0.15,-0.19 -0.22,-0.45 -0.16,-0.7 0.19,-0.87 1.03,-1.96 2.64,-3.16 1.58,-1.19 3.02,-2.27 4.32,-3.25 1.26,-0.93 2.36,-1.91 3.3,-2.93 1.39,-1.5 2.09,-3.26 2.09,-5.28 0,-2.03 -0.71,-3.77 -2.14,-5.2 -1.43,-1.43 -3.16,-2.15 -5.2,-2.15 -2.01,0 -3.74,0.72 -5.17,2.16 -1.03,1.04 -1.71,2.44 -2.07,4.18 l 1.74,0.63 c 0.29,-1.64 0.83,-2.82 1.58,-3.56 1.1,-1.09 2.4,-1.63 3.92,-1.63 1.54,0 2.86,0.55 3.95,1.63 1.09,1.09 1.64,2.4 1.64,3.94 0,1.52 -0.56,2.9 -1.69,4.15 -1.02,1.11 -2.17,2.15 -3.46,3.11 -1.25,0.94 -2.76,2.06 -4.53,3.38 -1.5,1.12 -2.49,3.38 -3.08,6.71 h 14.51 z"
   id="path150" />
                    </g>
                    <g
   transform="matrix(1.30783,-0.606789,0.612812,1.29498,-1374.87,337.918)"
   id="g156">
                        <path
   d="m 1260.49,1701.94 c 0,-1.6 -0.56,-2.96 -1.7,-4.09 -1.13,-1.13 -2.5,-1.69 -4.11,-1.69 -1.59,0 -2.96,0.56 -4.09,1.69 -1.13,1.13 -1.7,2.49 -1.7,4.09 v 7.95 c 0,1.61 0.57,2.98 1.7,4.11 1.13,1.12 2.5,1.69 4.09,1.69 1.61,0 2.98,-0.57 4.11,-1.69 1.14,-1.13 1.7,-2.5 1.7,-4.11 z m 3.45,7.95 c 0,2.55 -0.9,4.73 -2.7,6.54 -1.81,1.81 -4,2.71 -6.56,2.71 -2.55,0 -4.73,-0.9 -6.53,-2.71 -1.81,-1.81 -2.71,-3.99 -2.71,-6.54 v -7.95 c 0,-2.55 0.9,-4.73 2.71,-6.54 1.8,-1.81 3.98,-2.71 6.53,-2.71 2.56,0 4.75,0.9 6.56,2.71 1.8,1.81 2.7,3.99 2.7,6.54 z"
   style="fill-rule:nonzero"
   id="path154" />
                    </g>
                    <g
   transform="matrix(1.30783,-0.606789,0.612812,1.29498,-1374.87,337.918)"
   id="g160">
                        <path
   d="m 1264.78,1709.89 v -7.95 c 0,-2.78 -0.99,-5.16 -2.96,-7.13 -1.96,-1.97 -4.34,-2.95 -7.14,-2.95 -2.78,0 -5.15,0.98 -7.12,2.95 -1.97,1.97 -2.95,4.35 -2.95,7.13 0,0 0,7.95 0,7.95 0,2.78 0.98,5.16 2.95,7.13 1.97,1.97 4.34,2.95 7.12,2.95 2.8,0 5.18,-0.98 7.14,-2.95 1.97,-1.97 2.96,-4.35 2.96,-7.13 z m -1.67,0 c 0,2.33 -0.82,4.31 -2.46,5.95 -1.65,1.64 -3.64,2.47 -5.97,2.47 -2.32,0 -4.3,-0.83 -5.94,-2.47 -1.65,-1.64 -2.47,-3.62 -2.47,-5.95 v -7.95 c 0,-2.32 0.82,-4.31 2.47,-5.95 1.64,-1.64 3.62,-2.47 5.94,-2.47 2.33,0 4.32,0.83 5.97,2.47 1.64,1.64 2.46,3.63 2.46,5.95 0,0 0,7.95 0,7.95 z m -1.78,-7.95 c 0,-1.83 -0.65,-3.39 -1.95,-4.68 -1.29,-1.29 -2.86,-1.94 -4.7,-1.94 -1.82,0 -3.38,0.65 -4.68,1.94 -1.3,1.29 -1.94,2.85 -1.94,4.68 0,0 0,7.95 0,7.95 0,1.84 0.64,3.41 1.94,4.7 1.3,1.29 2.86,1.93 4.68,1.93 1.84,0 3.41,-0.64 4.7,-1.93 1.3,-1.29 1.95,-2.86 1.95,-4.7 z m -1.67,0 v 7.95 c 0,1.38 -0.48,2.55 -1.45,3.51 -0.98,0.97 -2.15,1.46 -3.53,1.46 -1.36,0 -2.53,-0.49 -3.5,-1.46 -0.97,-0.96 -1.46,-2.13 -1.46,-3.51 0,0 0,-7.95 0,-7.95 0,-1.37 0.49,-2.53 1.46,-3.5 0.97,-0.97 2.14,-1.45 3.5,-1.45 1.38,0 2.55,0.48 3.53,1.45 0.97,0.97 1.45,2.13 1.45,3.5 z"
   id="path158" />
                    </g>
                    <g
   transform="matrix(1.13988,-0.878209,0.886926,1.12867,-1620.24,977.986)"
   id="g164">
                        <path
   d="m 1283.15,1690.78 c 0,-1.59 -0.56,-2.95 -1.7,-4.08 -1.13,-1.13 -2.5,-1.7 -4.1,-1.7 -1.6,0 -2.97,0.57 -4.1,1.7 -1.13,1.13 -1.7,2.49 -1.7,4.08 v 7.96 c 0,1.61 0.57,2.97 1.7,4.1 1.13,1.13 2.5,1.7 4.1,1.7 1.6,0 2.97,-0.57 4.1,-1.7 1.14,-1.13 1.7,-2.49 1.7,-4.1 z m 3.46,7.96 c 0,2.55 -0.91,4.73 -2.71,6.54 -1.81,1.8 -4,2.71 -6.55,2.71 -2.55,0 -4.73,-0.91 -6.54,-2.71 -1.81,-1.81 -2.71,-3.99 -2.71,-6.54 v -7.96 c 0,-2.55 0.9,-4.73 2.71,-6.53 1.81,-1.81 3.99,-2.71 6.54,-2.71 2.55,0 4.74,0.9 6.55,2.71 1.8,1.8 2.71,3.98 2.71,6.53 z"
   style="fill-rule:nonzero"
   id="path162" />
                    </g>
                    <g
   transform="matrix(1.13988,-0.878209,0.886926,1.12867,-1620.24,977.986)"
   id="g168">
                        <path
   d="m 1287.44,1698.74 v -7.96 c 0,-2.78 -0.99,-5.15 -2.95,-7.12 -1.97,-1.97 -4.35,-2.96 -7.14,-2.96 -2.78,0 -5.16,0.99 -7.13,2.96 -1.97,1.97 -2.95,4.34 -2.95,7.12 v 7.96 c 0,2.78 0.98,5.15 2.95,7.13 1.97,1.96 4.35,2.95 7.13,2.95 2.79,0 5.17,-0.99 7.14,-2.95 1.96,-1.98 2.95,-4.35 2.95,-7.13 z m -1.67,0 c 0,2.32 -0.82,4.3 -2.46,5.95 -1.65,1.64 -3.64,2.46 -5.96,2.46 -2.32,0 -4.31,-0.82 -5.95,-2.46 -1.64,-1.65 -2.47,-3.63 -2.47,-5.95 v -7.96 c 0,-2.32 0.83,-4.3 2.47,-5.94 1.64,-1.65 3.63,-2.47 5.95,-2.47 2.32,0 4.31,0.82 5.96,2.47 1.64,1.64 2.46,3.62 2.46,5.94 0,0 0,7.96 0,7.96 z m -1.78,-7.96 c 0,-1.82 -0.65,-3.38 -1.95,-4.67 -1.29,-1.29 -2.86,-1.94 -4.69,-1.94 -1.83,0 -3.39,0.65 -4.69,1.94 -1.29,1.29 -1.94,2.85 -1.94,4.67 v 7.96 c 0,1.84 0.65,3.4 1.94,4.69 1.3,1.29 2.86,1.94 4.69,1.94 1.83,0 3.4,-0.65 4.69,-1.94 1.3,-1.29 1.95,-2.85 1.95,-4.69 0,0 0,-7.96 0,-7.96 z m -1.67,0 v 7.96 c 0,1.38 -0.48,2.55 -1.45,3.51 -0.98,0.97 -2.15,1.45 -3.52,1.45 -1.37,0 -2.54,-0.48 -3.51,-1.45 -0.97,-0.96 -1.46,-2.13 -1.46,-3.51 0,0 0,-7.96 0,-7.96 0,-1.36 0.49,-2.53 1.46,-3.49 0.97,-0.97 2.14,-1.45 3.51,-1.45 1.37,0 2.54,0.48 3.52,1.45 0.97,0.96 1.45,2.13 1.45,3.49 z"
   id="path166" />
                    </g>
                    <g
   transform="matrix(0.941993,-1.08405,1.09481,0.932735,-1700.23,1585.63)"
   id="g172">
                        <path
   d="m 1294.39,1680.14 -2.03,-0.05 v -3.34 c 1.47,-0.02 2.45,-0.12 2.91,-0.3 0.47,-0.18 0.98,-0.56 1.53,-1.15 0.56,-0.58 0.83,-1.26 0.83,-2.02 0,-0.74 -0.26,-1.38 -0.78,-1.89 -0.52,-0.52 -1.16,-0.78 -1.9,-0.78 -0.74,0 -1.37,0.26 -1.89,0.77 -0.29,0.3 -0.63,0.97 -1.01,1.99 l -3.14,-1.24 c 0.47,-1.47 1.03,-2.52 1.71,-3.16 1.2,-1.19 2.65,-1.79 4.33,-1.79 1.71,0 3.17,0.6 4.36,1.81 1.19,1.2 1.79,2.63 1.79,4.29 0,1.7 -1,3.33 -3.01,4.9 0.96,0.07 1.98,0.62 3.04,1.65 1.55,1.67 2.33,3.62 2.33,5.86 0,2.25 -0.8,4.18 -2.38,5.78 -1.59,1.6 -3.52,2.4 -5.79,2.4 -2.25,0 -4.17,-0.8 -5.76,-2.41 -1.27,-1.28 -2.08,-3.05 -2.43,-5.32 l 3.37,-1.22 c 0.2,1.95 0.69,3.33 1.48,4.12 0.93,0.92 2.05,1.38 3.34,1.38 1.31,0 2.43,-0.46 3.36,-1.38 0.93,-0.92 1.39,-2.04 1.39,-3.35 0,-1.33 -0.46,-2.49 -1.39,-3.5 -0.93,-1.01 -2.35,-1.7 -4.26,-2.05 z"
   style="fill-rule:nonzero"
   id="path170" />
                    </g>
                    <g
   transform="matrix(0.941993,-1.08405,1.09481,0.932735,-1700.23,1585.63)"
   id="g176">
                        <path
   d="m 1293.65,1671.97 c -0.25,0.26 -0.5,0.83 -0.82,1.69 -0.08,0.21 -0.24,0.38 -0.44,0.47 -0.21,0.09 -0.44,0.09 -0.65,0.01 l -3.14,-1.24 c -0.41,-0.16 -0.62,-0.61 -0.49,-1.02 0.52,-1.64 1.18,-2.8 1.92,-3.5 1.37,-1.36 3.01,-2.03 4.92,-2.03 1.94,0 3.6,0.68 4.95,2.05 1.36,1.37 2.03,3 2.03,4.88 0,1.55 -0.7,3.07 -2.16,4.53 0.63,0.31 1.28,0.78 1.94,1.42 l 0.03,0.03 c 1.7,1.83 2.55,3.98 2.55,6.43 0,2.48 -0.87,4.61 -2.62,6.37 -1.76,1.76 -3.88,2.65 -6.38,2.65 -2.48,0 -4.6,-0.89 -6.36,-2.66 -1.38,-1.39 -2.27,-3.31 -2.65,-5.78 -0.06,-0.39 0.16,-0.78 0.54,-0.91 l 3.37,-1.22 c 0.24,-0.09 0.51,-0.06 0.72,0.08 0.22,0.13 0.36,0.36 0.39,0.62 0.17,1.7 0.55,2.92 1.24,3.61 0.77,0.76 1.68,1.14 2.75,1.14 1.08,0 2.01,-0.38 2.77,-1.14 0.77,-0.76 1.15,-1.68 1.15,-2.76 0,-1.11 -0.39,-2.09 -1.17,-2.94 -0.82,-0.88 -2.07,-1.46 -3.74,-1.78 l -1.96,-0.05 c -0.45,-0.01 -0.81,-0.38 -0.81,-0.83 v -3.34 c 0,-0.45 0.36,-0.83 0.82,-0.83 1.33,-0.02 2.2,-0.09 2.62,-0.25 0.38,-0.14 0.78,-0.47 1.23,-0.94 0.39,-0.42 0.6,-0.9 0.6,-1.45 0,-0.51 -0.18,-0.95 -0.53,-1.3 -0.37,-0.36 -0.81,-0.53 -1.32,-0.53 -0.51,0 -0.94,0.17 -1.3,0.52 z m 6.89,8.44 c -0.89,-0.85 -1.71,-1.34 -2.51,-1.4 -0.34,-0.02 -0.64,-0.25 -0.74,-0.58 -0.1,-0.33 0.01,-0.69 0.28,-0.9 1.76,-1.38 2.7,-2.77 2.7,-4.25 0,-1.43 -0.52,-2.67 -1.55,-3.71 -1.04,-1.04 -2.29,-1.56 -3.77,-1.56 -1.46,0 -2.7,0.52 -3.76,1.56 -0.48,0.46 -0.88,1.15 -1.23,2.08 l 1.63,0.64 c 0.31,-0.73 0.61,-1.22 0.87,-1.49 l 0.02,-0.02 c 0.68,-0.66 1.5,-1 2.47,-1 0.98,0 1.81,0.34 2.49,1.02 0.68,0.67 1.03,1.5 1.03,2.48 0,0.98 -0.35,1.84 -1.06,2.59 -0.66,0.7 -1.28,1.14 -1.84,1.36 -0.42,0.16 -1.21,0.28 -2.38,0.33 v 1.71 l 1.22,0.03 c 0.05,0 0.09,0.01 0.14,0.02 2.12,0.4 3.68,1.18 4.71,2.3 1.08,1.17 1.61,2.53 1.61,4.07 0,1.54 -0.54,2.86 -1.63,3.94 -1.09,1.08 -2.41,1.63 -3.95,1.63 -1.52,0 -2.83,-0.54 -3.93,-1.63 -0.74,-0.75 -1.29,-1.93 -1.57,-3.57 l -1.74,0.63 c 0.36,1.75 1.04,3.15 2.07,4.19 1.43,1.44 3.15,2.16 5.17,2.16 2.03,0 3.77,-0.72 5.19,-2.16 1.43,-1.43 2.15,-3.17 2.15,-5.19 0,-2.02 -0.7,-3.78 -2.09,-5.28 z"
   id="path174" />
                    </g>
                </g>
                <g
   transform="matrix(-0.207784,0.706633,-0.706633,-0.207784,2711.93,-863.529)"
   id="g182">
                    <path
   d="m 2313.72,1034.49 3.08,9.49 h 9.98 l -8.07,5.86 3.08,9.5 -8.07,-5.87 -8.07,5.87 3.08,-9.5 -8.07,-5.86 h 9.98 z"
   id="path180" />
                </g>
                <g
   transform="matrix(-0.207784,0.706633,-0.706633,-0.207784,2711.93,-863.529)"
   id="g186">
                    <path
   d="m 2305.41,1050.92 -6.42,-4.65 c -0.99,-0.72 -1.4,-2 -1.02,-3.17 0.38,-1.16 1.46,-1.95 2.69,-1.95 h 7.92 l 2.45,-7.54 c 0.38,-1.16 1.46,-1.95 2.69,-1.95 1.23,0 2.31,0.79 2.69,1.95 l 2.45,7.54 h 7.92 c 1.23,0 2.32,0.79 2.69,1.95 0.38,1.17 -0.03,2.45 -1.02,3.17 l -6.42,4.65 2.45,7.54 c 0.38,1.17 -0.03,2.44 -1.02,3.16 -0.99,0.72 -2.34,0.72 -3.33,0 l -6.41,-4.65 -6.41,4.65 c -0.99,0.72 -2.33,0.72 -3.33,0 -0.99,-0.72 -1.4,-1.99 -1.02,-3.16 z m 3.95,-4.11 1.03,0.75 c 1,0.72 1.41,1.99 1.03,3.16 l -0.39,1.21 1.03,-0.75 c 0.99,-0.72 2.33,-0.72 3.32,0 l 1.03,0.75 -0.39,-1.21 c -0.38,-1.17 0.04,-2.44 1.03,-3.16 l 1.03,-0.75 h -1.28 c -1.22,0 -2.31,-0.79 -2.69,-1.96 l -0.39,-1.21 -0.39,1.21 c -0.38,1.17 -1.47,1.96 -2.69,1.96 z"
   id="path184" />
                </g>
                <g
   transform="matrix(0.207784,0.706633,0.706633,-0.207784,460.214,-861.529)"
   id="g190">
                    <path
   d="m 2313.72,1034.49 3.08,9.49 h 9.98 l -8.07,5.86 3.08,9.5 -8.07,-5.87 -8.07,5.87 3.08,-9.5 -8.07,-5.86 h 9.98 z"
   id="path188" />
                </g>
                <g
   transform="matrix(0.207784,0.706633,0.706633,-0.207784,460.214,-861.529)"
   id="g194">
                    <path
   d="m 2308.58,1041.15 h -7.92 c -1.23,0 -2.31,0.79 -2.69,1.95 -0.38,1.17 0.03,2.45 1.02,3.17 l 6.42,4.65 -2.45,7.54 c -0.38,1.17 0.03,2.44 1.02,3.16 1,0.72 2.34,0.72 3.33,0 l 6.41,-4.65 6.41,4.65 c 0.99,0.72 2.34,0.72 3.33,0 0.99,-0.72 1.4,-1.99 1.02,-3.16 l -2.45,-7.54 6.42,-4.65 c 0.99,-0.72 1.4,-2 1.02,-3.17 -0.37,-1.16 -1.46,-1.95 -2.69,-1.95 h -7.92 l -2.45,-7.54 c -0.38,-1.16 -1.46,-1.95 -2.69,-1.95 -1.23,0 -2.31,0.79 -2.69,1.95 z m 0.78,5.66 h 1.28 c 1.22,0 2.31,-0.79 2.69,-1.96 l 0.39,-1.21 0.39,1.21 c 0.38,1.17 1.47,1.96 2.69,1.96 h 1.28 l -1.03,0.75 c -0.99,0.72 -1.41,1.99 -1.03,3.16 l 0.39,1.21 -1.03,-0.75 c -0.99,-0.72 -2.33,-0.72 -3.32,0 l -1.03,0.75 0.39,-1.21 c 0.38,-1.17 -0.03,-2.44 -1.03,-3.16 z"
   id="path192" />
                </g>
                <g
   transform="translate(-71.014,-949.471)"
   id="g220">
                    <path
   d="m 1639.67,1547.1 c -2.36,-0.55 -4.68,-1.22 -6.96,-1.98 -1.63,-0.55 -3.41,0.33 -3.96,1.96 -0.55,1.64 0.33,3.41 1.97,3.96 2.46,0.83 4.97,1.55 7.53,2.15 1.67,0.39 3.36,-0.65 3.75,-2.33 0.39,-1.68 -0.65,-3.37 -2.33,-3.76 z"
   id="path196" />
                    <path
   d="m 1632.71,1545.12 c -30.65,-10.31 -52.75,-39.3 -52.75,-73.4 0,-42.73 34.69,-77.42 77.42,-77.42 42.73,0 77.42,34.69 77.42,77.42 0,36.64 -25.5,67.36 -59.7,75.38 -1.68,0.39 -2.73,2.08 -2.33,3.76 0.39,1.68 2.07,2.72 3.75,2.33 36.97,-8.67 64.53,-41.88 64.53,-81.47 0,-46.18 -37.49,-83.67 -83.67,-83.67 -46.18,0 -83.67,37.49 -83.67,83.67 0,36.86 23.89,68.18 57.01,79.32 1.63,0.55 3.4,-0.33 3.95,-1.96 0.56,-1.64 -0.33,-3.41 -1.96,-3.96 z"
   id="path198" />
                    <g
   transform="matrix(1.43057,0,0,0.381,-132.544,1367.29)"
   id="g202">
                        <path
   d="m 1236.14,405.618 v 74.324 c 0,4.527 0.98,8.202 2.18,8.202 1.21,0 2.19,-3.675 2.19,-8.202 v -74.324 c 0,-4.527 -0.98,-8.202 -2.19,-8.202 -1.2,0 -2.18,3.675 -2.18,8.202 z"
   id="path200" />
                    </g>
                    <g
   transform="matrix(1.43057,0,0,0.490139,-132.544,1314.9)"
   id="g206">
                        <path
   d="m 1261.9,344.89 c -1.82,2.016 -4.13,4.074 -6.2,4.349 -4.39,0.583 -17.66,-4.34 -17.66,-4.34 -1.19,-0.449 -2.04,-3.646 -1.89,-7.136 0.16,-3.49 1.25,-5.96 2.45,-5.512 0,0 12.7,4.808 16.9,4.25 3.39,-0.45 7.56,-6.991 7.56,-6.991 0.68,-1.042 1.5,-0.973 2.15,0.181 0.66,1.154 1.06,3.225 1.06,5.459 v 144.792 c 0,3.519 -0.98,6.376 -2.19,6.376 -1.2,0 -2.18,-2.857 -2.18,-6.376 z"
   id="path204" />
                    </g>
                    <g
   transform="translate(408.632,997.395)"
   id="g210">
                        <path
   d="m 1227.11,483.361 c 0,0 -0.72,8.334 -3.9,14.837 -2.96,6.021 -3.91,10.149 -3.83,12.889 0.08,2.69 1.04,4.444 2.3,5.619 1.76,1.637 4.36,2.172 6.92,1.964 2.98,-0.242 5.78,-1.401 5.78,-1.401 1.59,-0.659 2.35,-2.488 1.69,-4.082 -0.66,-1.594 -2.49,-2.352 -4.08,-1.693 0,0 -1.89,0.784 -3.9,0.947 -0.77,0.062 -1.62,0.187 -2.15,-0.307 -0.41,-0.39 -0.38,-1.096 -0.27,-2.142 0.21,-2.13 1.19,-5.043 3.15,-9.043 3.66,-7.472 4.52,-17.04 4.52,-17.04 0.15,-1.718 -1.12,-3.235 -2.84,-3.387 -1.72,-0.151 -3.23,1.121 -3.39,2.839 z"
   id="path208" />
                    </g>
                    <g
   transform="matrix(0.601737,0,0,0.770224,905.966,1263.1)"
   id="g214">
                        <path
   d="m 1250.18,232.043 c -1.65,5.692 -5.2,13.311 -12.77,21.53 -1.47,1.606 -2.37,3.536 -2.37,5.649 0,2.122 1.66,5.001 5.34,7.867 2.03,1.58 2.04,4.151 0.02,5.738 -2.03,1.586 -5.32,1.592 -7.35,0.012 -6.25,-4.864 -8.4,-10.015 -8.4,-13.617 0,-3.881 1.62,-7.436 4.33,-10.387 13.11,-14.242 12.18,-26.206 12.18,-26.206 -0.16,-1.674 1.01,-3.253 2.95,-3.972 1.94,-0.719 4.25,-0.429 5.81,0.73 0,0 24.51,18.466 21.97,40.203 -0.77,6.602 -2.85,10.087 -9.72,14.256 -2.27,1.373 -5.53,1.051 -7.29,-0.718 -1.76,-1.769 -1.35,-4.32 0.92,-5.693 4.12,-2.499 5.29,-4.622 5.75,-8.581 1.26,-10.816 -5.59,-20.623 -11.37,-26.811 z"
   id="path212" />
                    </g>
                    <g
   transform="matrix(1,0,0,0.501778,408.336,1249.36)"
   id="g218">
                        <path
   d="m 1254.35,496.162 v 45.075 c 0,3.437 1.4,6.228 3.12,6.228 1.73,0 3.13,-2.791 3.13,-6.228 v -45.075 c 0,-3.437 -1.4,-6.228 -3.13,-6.228 -1.72,0 -3.12,2.791 -3.12,6.228 z"
   id="path216" />
                    </g>
                </g>
            </g>
            <g
   transform="matrix(1.2175,0,0,1.2175,-526.762,-201.388)"
   id="g226">
                <path
   d="m 2421.88,822.236 c -56.67,0 -102.69,46.449 -102.69,103.677 0,57.227 46.02,103.677 102.69,103.677 56.66,0 102.68,-46.45 102.68,-103.677 0,-57.228 -46.02,-103.677 -102.68,-103.677 z m 0,5.134 c 53.84,0 97.55,44.162 97.55,98.543 0,54.38 -43.71,98.537 -97.55,98.537 -53.85,0 -97.55,-44.157 -97.55,-98.537 0,-54.381 43.7,-98.543 97.55,-98.543 z"
   id="path224" />
            </g>
        </g>
    </g>
</svg>
